<svg width="1451" height="881.5" xmlns="http://www.w3.org/2000/svg" xmlns:xlink="http://www.w3.org/1999/xlink" fill="#ffffff"><defs><style>
  text {
    fill: #212529;
    font-family: Helvetica Neue, Helvetica, Arial, sans-serif;
    font-size: 16px;
  }

  marker, text {
    fill-opacity: 1;
  }

  * {
    overflow: visible;
  }
</style></defs><svg x="520" y="150" width="240" height="310" class="User" fill="#ffffff"><g><rect width="100%" height="40" stroke="none" fill="white" class="sc-fqkvVR eDtKfR"></rect><rect y="40" width="100%" height="270" stroke="none" fill="white" class="sc-fqkvVR eDtKfR"></rect><svg height="40"><text x="50%" y="50%" dominant-baseline="middle" text-anchor="middle" font-weight="bold" pointer-events="none">User</text></svg><svg x="0" y="40.5" width="239" height="30" class="id: integer" fill="#ffffff"><g><rect width="100%" height="100%" stroke="none" fill="white" class="sc-fqkvVR eDtKfR"></rect><text x="10" y="50%" dominant-baseline="middle" text-anchor="start" font-weight="normal" pointer-events="none">id: integer</text></g></svg><svg x="0" y="70.5" width="239" height="30" class="usename: string" fill="#ffffff"><g><rect width="100%" height="100%" stroke="none" fill="white" class="sc-fqkvVR eDtKfR"></rect><text x="10" y="50%" dominant-baseline="middle" text-anchor="start" font-weight="normal" pointer-events="none">usename: string</text></g></svg><svg x="0" y="100.5" width="239" height="30" class="name: string" fill="#ffffff"><g><rect width="100%" height="100%" stroke="none" fill="white" class="sc-fqkvVR eDtKfR"></rect><text x="10" y="50%" dominant-baseline="middle" text-anchor="start" font-weight="normal" pointer-events="none">name: string</text></g></svg><svg x="0" y="130.5" width="239" height="30" class="surname: string" fill="#ffffff"><g><rect width="100%" height="100%" stroke="none" fill="white" class="sc-fqkvVR eDtKfR"></rect><text x="10" y="50%" dominant-baseline="middle" text-anchor="start" font-weight="normal" pointer-events="none">surname: string</text></g></svg><svg x="0" y="160.5" width="239" height="30" class="taxIdentificationNumber: string" fill="#ffffff"><g><rect width="100%" height="100%" stroke="none" fill="white" class="sc-fqkvVR eDtKfR"></rect><text x="10" y="50%" dominant-baseline="middle" text-anchor="start" font-weight="normal" pointer-events="none">taxIdentificationNumber: string</text></g></svg><svg x="0" y="190.5" width="239" height="30" class="role: UserRole" fill="#ffffff"><g><rect width="100%" height="100%" stroke="none" fill="white" class="sc-fqkvVR eDtKfR"></rect><text x="10" y="50%" dominant-baseline="middle" text-anchor="start" font-weight="normal" pointer-events="none">role: UserRole</text></g></svg><svg x="0" y="220.5" width="239" height="30" class="passwordHash: string" fill="#ffffff"><g><rect width="100%" height="100%" stroke="none" fill="white" class="sc-fqkvVR eDtKfR"></rect><text x="10" y="50%" dominant-baseline="middle" text-anchor="start" font-weight="normal" pointer-events="none">passwordHash: string</text></g></svg><svg x="0" y="250.5" width="239" height="30" class="email: string" fill="#ffffff"><g><rect width="100%" height="100%" stroke="none" fill="white" class="sc-fqkvVR eDtKfR"></rect><text x="10" y="50%" dominant-baseline="middle" text-anchor="start" font-weight="normal" pointer-events="none">email: string</text></g></svg><svg x="0" y="280.5" width="239" height="30" class="isEmailNotification: boolean" fill="#ffffff"><g><rect width="100%" height="100%" stroke="none" fill="white" class="sc-fqkvVR eDtKfR"></rect><text x="10" y="50%" dominant-baseline="middle" text-anchor="start" font-weight="normal" pointer-events="none">isEmailNotification: boolean</text></g></svg><rect width="100%" height="100%" stroke="black" fill="none" class="sc-fqkvVR jAaomD"></rect><path d="M 0 40 H 240" stroke="black" fill="white" class="sc-gEvEer fkqzOi"></path></g></svg><svg x="630" y="540" width="120" height="140" class="UserRole" fill="#ffffff"><g><rect width="100%" height="50" stroke="none" fill="white" class="sc-fqkvVR eDtKfR"></rect><rect y="50" width="100%" height="90" stroke="none" fill="white" class="sc-fqkvVR eDtKfR"></rect><svg height="50"><text x="50%" y="50%" dominant-baseline="middle" text-anchor="middle" font-weight="bold" pointer-events="none"><tspan x="50%" dy="-8" text-anchor="middle" font-size="85%">«enumeration»</tspan><tspan x="50%" dy="18" text-anchor="middle">UserRole</tspan></text></svg><svg x="0" y="50.5" width="119" height="30" class="User" fill="#ffffff"><g><rect width="100%" height="100%" stroke="none" fill="white" class="sc-fqkvVR eDtKfR"></rect><text x="10" y="50%" dominant-baseline="middle" text-anchor="start" font-weight="normal" pointer-events="none">User</text></g></svg><svg x="0" y="80.5" width="119" height="30" class="Operator" fill="#ffffff"><g><rect width="100%" height="100%" stroke="none" fill="white" class="sc-fqkvVR eDtKfR"></rect><text x="10" y="50%" dominant-baseline="middle" text-anchor="start" font-weight="normal" pointer-events="none">Operator</text></g></svg><svg x="0" y="110.5" width="119" height="30" class="Admin" fill="#ffffff"><g><rect width="100%" height="100%" stroke="none" fill="white" class="sc-fqkvVR eDtKfR"></rect><text x="10" y="50%" dominant-baseline="middle" text-anchor="start" font-weight="normal" pointer-events="none">Admin</text></g></svg><rect width="100%" height="100%" stroke="black" fill="none" class="sc-fqkvVR jAaomD"></rect><path d="M 0 50 H 120" stroke="black" fill="white" class="sc-gEvEer fkqzOi"></path></g></svg><svg x="30" y="160" width="210" height="310" class="Report" fill="#ffffff"><g><rect width="100%" height="40" stroke="none" fill="white" class="sc-fqkvVR eDtKfR"></rect><rect y="40" width="100%" height="270" stroke="none" fill="white" class="sc-fqkvVR eDtKfR"></rect><svg height="40"><text x="50%" y="50%" dominant-baseline="middle" text-anchor="middle" font-weight="bold" pointer-events="none">Report</text></svg><svg x="0" y="40.5" width="209" height="30" class="id: integer" fill="#ffffff"><g><rect width="100%" height="100%" stroke="none" fill="white" class="sc-fqkvVR eDtKfR"></rect><text x="10" y="50%" dominant-baseline="middle" text-anchor="start" font-weight="normal" pointer-events="none">id: integer</text></g></svg><svg x="0" y="70.5" width="209" height="30" class="latitude: float" fill="#ffffff"><g><rect width="100%" height="100%" stroke="none" fill="white" class="sc-fqkvVR eDtKfR"></rect><text x="10" y="50%" dominant-baseline="middle" text-anchor="start" font-weight="normal" pointer-events="none">latitude: float</text></g></svg><svg x="0" y="100.5" width="209" height="30" class="longitude: float" fill="#ffffff"><g><rect width="100%" height="100%" stroke="none" fill="white" class="sc-fqkvVR eDtKfR"></rect><text x="10" y="50%" dominant-baseline="middle" text-anchor="start" font-weight="normal" pointer-events="none">longitude: float</text></g></svg><svg x="0" y="130.5" width="209" height="30" class="title: string" fill="#ffffff"><g><rect width="100%" height="100%" stroke="none" fill="white" class="sc-fqkvVR eDtKfR"></rect><text x="10" y="50%" dominant-baseline="middle" text-anchor="start" font-weight="normal" pointer-events="none">title: string</text></g></svg><svg x="0" y="160.5" width="209" height="30" class="description: string" fill="#ffffff"><g><rect width="100%" height="100%" stroke="none" fill="white" class="sc-fqkvVR eDtKfR"></rect><text x="10" y="50%" dominant-baseline="middle" text-anchor="start" font-weight="normal" pointer-events="none">description: string</text></g></svg><svg x="0" y="190.5" width="209" height="30" class="category: ReportCategory" fill="#ffffff"><g><rect width="100%" height="100%" stroke="none" fill="white" class="sc-fqkvVR eDtKfR"></rect><text x="10" y="50%" dominant-baseline="middle" text-anchor="start" font-weight="normal" pointer-events="none">category: ReportCategory</text></g></svg><svg x="0" y="220.5" width="209" height="30" class="status: ReportStatus" fill="#ffffff"><g><rect width="100%" height="100%" stroke="none" fill="white" class="sc-fqkvVR eDtKfR"></rect><text x="10" y="50%" dominant-baseline="middle" text-anchor="start" font-weight="normal" pointer-events="none">status: ReportStatus</text></g></svg><svg x="0" y="250.5" width="209" height="30" class="isAnonymous: boolean" fill="#ffffff"><g><rect width="100%" height="100%" stroke="none" fill="white" class="sc-fqkvVR eDtKfR"></rect><text x="10" y="50%" dominant-baseline="middle" text-anchor="start" font-weight="normal" pointer-events="none">isAnonymous: boolean</text></g></svg><svg x="0" y="280.5" width="209" height="30" class="createdAt: Date" fill="#ffffff"><g><rect width="100%" height="100%" stroke="none" fill="white" class="sc-fqkvVR eDtKfR"></rect><text x="10" y="50%" dominant-baseline="middle" text-anchor="start" font-weight="normal" pointer-events="none">createdAt: Date</text></g></svg><rect width="100%" height="100%" stroke="black" fill="none" class="sc-fqkvVR jAaomD"></rect><path d="M 0 40 H 210" stroke="black" fill="white" class="sc-gEvEer fkqzOi"></path></g></svg><svg x="20" y="540" width="170" height="320" class="ReportCategory" fill="#ffffff"><g><rect width="100%" height="50" stroke="none" fill="white" class="sc-fqkvVR eDtKfR"></rect><rect y="50" width="100%" height="270" stroke="none" fill="white" class="sc-fqkvVR eDtKfR"></rect><svg height="50"><text x="50%" y="50%" dominant-baseline="middle" text-anchor="middle" font-weight="bold" pointer-events="none"><tspan x="50%" dy="-8" text-anchor="middle" font-size="85%">«enumeration»</tspan><tspan x="50%" dy="18" text-anchor="middle">ReportCategory</tspan></text></svg><svg x="0" y="50.5" width="169" height="30" class="Waterworks" fill="#ffffff"><g><rect width="100%" height="100%" stroke="none" fill="white" class="sc-fqkvVR eDtKfR"></rect><text x="10" y="50%" dominant-baseline="middle" text-anchor="start" font-weight="normal" pointer-events="none">Waterworks</text></g></svg><svg x="0" y="80.5" width="169" height="30" class="Architectural Barriers" fill="#ffffff"><g><rect width="100%" height="100%" stroke="none" fill="white" class="sc-fqkvVR eDtKfR"></rect><text x="10" y="50%" dominant-baseline="middle" text-anchor="start" font-weight="normal" pointer-events="none">Architectural Barriers</text></g></svg><svg x="0" y="110.5" width="169" height="30" class="Sewerage" fill="#ffffff"><g><rect width="100%" height="100%" stroke="none" fill="white" class="sc-fqkvVR eDtKfR"></rect><text x="10" y="50%" dominant-baseline="middle" text-anchor="start" font-weight="normal" pointer-events="none">Sewerage</text></g></svg><svg x="0" y="140.5" width="169" height="30" class="Public Lighting" fill="#ffffff"><g><rect width="100%" height="100%" stroke="none" fill="white" class="sc-fqkvVR eDtKfR"></rect><text x="10" y="50%" dominant-baseline="middle" text-anchor="start" font-weight="normal" pointer-events="none">Public Lighting</text></g></svg><svg x="0" y="170.5" width="169" height="30" class="Waste" fill="#ffffff"><g><rect width="100%" height="100%" stroke="none" fill="white" class="sc-fqkvVR eDtKfR"></rect><text x="10" y="50%" dominant-baseline="middle" text-anchor="start" font-weight="normal" pointer-events="none">Waste</text></g></svg><svg x="0" y="200.5" width="169" height="30" class="Road Signs" fill="#ffffff"><g><rect width="100%" height="100%" stroke="none" fill="white" class="sc-fqkvVR eDtKfR"></rect><text x="10" y="50%" dominant-baseline="middle" text-anchor="start" font-weight="normal" pointer-events="none">Road Signs</text></g></svg><svg x="0" y="230.5" width="169" height="30" class="Roads" fill="#ffffff"><g><rect width="100%" height="100%" stroke="none" fill="white" class="sc-fqkvVR eDtKfR"></rect><text x="10" y="50%" dominant-baseline="middle" text-anchor="start" font-weight="normal" pointer-events="none">Roads</text></g></svg><svg x="0" y="260.5" width="169" height="30" class="Green Areas" fill="#ffffff"><g><rect width="100%" height="100%" stroke="none" fill="white" class="sc-fqkvVR eDtKfR"></rect><text x="10" y="50%" dominant-baseline="middle" text-anchor="start" font-weight="normal" pointer-events="none">Green Areas</text></g></svg><svg x="0" y="290.5" width="169" height="30" class="Other" fill="#ffffff"><g><rect width="100%" height="100%" stroke="none" fill="white" class="sc-fqkvVR eDtKfR"></rect><text x="10" y="50%" dominant-baseline="middle" text-anchor="start" font-weight="normal" pointer-events="none">Other</text></g></svg><rect width="100%" height="100%" stroke="black" fill="none" class="sc-fqkvVR jAaomD"></rect><path d="M 0 50 H 170" stroke="black" fill="white" class="sc-gEvEer fkqzOi"></path></g></svg><svg x="210" y="540" width="150" height="230" class="ReportStatus" fill="#ffffff"><g><rect width="100%" height="50" stroke="none" fill="white" class="sc-fqkvVR eDtKfR"></rect><rect y="50" width="100%" height="180" stroke="none" fill="white" class="sc-fqkvVR eDtKfR"></rect><svg height="50"><text x="50%" y="50%" dominant-baseline="middle" text-anchor="middle" font-weight="bold" pointer-events="none"><tspan x="50%" dy="-8" text-anchor="middle" font-size="85%">«enumeration»</tspan><tspan x="50%" dy="18" text-anchor="middle">ReportStatus</tspan></text></svg><svg x="0" y="50.5" width="149" height="30" class="Pending Approval" fill="#ffffff"><g><rect width="100%" height="100%" stroke="none" fill="white" class="sc-fqkvVR eDtKfR"></rect><text x="10" y="50%" dominant-baseline="middle" text-anchor="start" font-weight="normal" pointer-events="none">Pending Approval</text></g></svg><svg x="0" y="80.5" width="149" height="30" class="Assigned" fill="#ffffff"><g><rect width="100%" height="100%" stroke="none" fill="white" class="sc-fqkvVR eDtKfR"></rect><text x="10" y="50%" dominant-baseline="middle" text-anchor="start" font-weight="normal" pointer-events="none">Assigned</text></g></svg><svg x="0" y="110.5" width="149" height="30" class="In Progress" fill="#ffffff"><g><rect width="100%" height="100%" stroke="none" fill="white" class="sc-fqkvVR eDtKfR"></rect><text x="10" y="50%" dominant-baseline="middle" text-anchor="start" font-weight="normal" pointer-events="none">In Progress</text></g></svg><svg x="0" y="140.5" width="149" height="30" class="Suspended" fill="#ffffff"><g><rect width="100%" height="100%" stroke="none" fill="white" class="sc-fqkvVR eDtKfR"></rect><text x="10" y="50%" dominant-baseline="middle" text-anchor="start" font-weight="normal" pointer-events="none">Suspended</text></g></svg><svg x="0" y="170.5" width="149" height="30" class="Rejected" fill="#ffffff"><g><rect width="100%" height="100%" stroke="none" fill="white" class="sc-fqkvVR eDtKfR"></rect><text x="10" y="50%" dominant-baseline="middle" text-anchor="start" font-weight="normal" pointer-events="none">Rejected</text></g></svg><svg x="0" y="200.5" width="149" height="30" class="Resolved" fill="#ffffff"><g><rect width="100%" height="100%" stroke="none" fill="white" class="sc-fqkvVR eDtKfR"></rect><text x="10" y="50%" dominant-baseline="middle" text-anchor="start" font-weight="normal" pointer-events="none">Resolved</text></g></svg><rect width="100%" height="100%" stroke="black" fill="none" class="sc-fqkvVR jAaomD"></rect><path d="M 0 50 H 150" stroke="black" fill="white" class="sc-gEvEer fkqzOi"></path></g></svg><svg x="30" y="40" width="90" height="70" class="Photo" fill="#ffffff"><g><rect width="100%" height="40" stroke="none" fill="white" class="sc-fqkvVR eDtKfR"></rect><rect y="40" width="100%" height="30" stroke="none" fill="white" class="sc-fqkvVR eDtKfR"></rect><svg height="40"><text x="50%" y="50%" dominant-baseline="middle" text-anchor="middle" font-weight="bold" pointer-events="none">Photo</text></svg><svg x="0" y="40.5" width="89" height="30" class="url: string" fill="#ffffff"><g><rect width="100%" height="100%" stroke="none" fill="white" class="sc-fqkvVR eDtKfR"></rect><text x="10" y="50%" dominant-baseline="middle" text-anchor="start" font-weight="normal" pointer-events="none">url: string</text></g></svg><rect width="100%" height="100%" stroke="black" fill="none" class="sc-fqkvVR jAaomD"></rect><path d="M 0 40 H 90" stroke="black" fill="white" class="sc-gEvEer fkqzOi"></path></g></svg><svg x="910" y="250" width="160" height="100" class="Message" fill="#ffffff"><g><rect width="100%" height="40" stroke="none" fill="white" class="sc-fqkvVR eDtKfR"></rect><rect y="40" width="100%" height="60" stroke="none" fill="white" class="sc-fqkvVR eDtKfR"></rect><svg height="40"><text x="50%" y="50%" dominant-baseline="middle" text-anchor="middle" font-weight="bold" pointer-events="none">Message</text></svg><svg x="0" y="40.5" width="159" height="30" class="createdAt: Date" fill="#ffffff"><g><rect width="100%" height="100%" stroke="none" fill="white" class="sc-fqkvVR eDtKfR"></rect><text x="10" y="50%" dominant-baseline="middle" text-anchor="start" font-weight="normal" pointer-events="none">createdAt: Date</text></g></svg><svg x="0" y="70.5" width="159" height="30" class="text: string" fill="#ffffff"><g><rect width="100%" height="100%" stroke="none" fill="white" class="sc-fqkvVR eDtKfR"></rect><text x="10" y="50%" dominant-baseline="middle" text-anchor="start" font-weight="normal" pointer-events="none">text: string</text></g></svg><rect width="100%" height="100%" stroke="black" fill="none" class="sc-fqkvVR jAaomD"></rect><path d="M 0 40 H 160" stroke="black" fill="white" class="sc-gEvEer fkqzOi"></path></g></svg><svg x="300" y="400" width="160" height="80" class="Follow" fill="#ffffff"><g><rect width="100%" height="50" stroke="none" fill="white" class="sc-fqkvVR eDtKfR"></rect><rect y="50" width="100%" height="30" stroke="none" fill="white" class="sc-fqkvVR eDtKfR"></rect><svg height="50"><text x="50%" y="50%" dominant-baseline="middle" text-anchor="middle" font-weight="bold" pointer-events="none"><tspan x="50%" dy="-8" text-anchor="middle" font-size="85%">«intermediate»</tspan><tspan x="50%" dy="18" text-anchor="middle">Follow</tspan></text></svg><svg x="0" y="50.5" width="159" height="30" class="createdAt: Date" fill="#ffffff"><g><rect width="100%" height="100%" stroke="none" fill="white" class="sc-fqkvVR eDtKfR"></rect><text x="10" y="50%" dominant-baseline="middle" text-anchor="start" font-weight="normal" pointer-events="none">createdAt: Date</text></g></svg><rect width="100%" height="100%" stroke="black" fill="none" class="sc-fqkvVR jAaomD"></rect><path d="M 0 50 H 160" stroke="black" fill="white" class="sc-gEvEer fkqzOi"></path></g></svg><svg x="480" y="20" width="210" height="70" class="Operator" fill="#ffffff"><g><rect width="100%" height="40" stroke="none" fill="white" class="sc-fqkvVR eDtKfR"></rect><rect y="40" width="100%" height="30" stroke="none" fill="white" class="sc-fqkvVR eDtKfR"></rect><svg height="40"><text x="50%" y="50%" dominant-baseline="middle" text-anchor="middle" font-weight="bold" pointer-events="none">Operator</text></svg><svg x="0" y="40.5" width="209" height="30" class="category: ReportCategory" fill="#ffffff"><g><rect width="100%" height="100%" stroke="none" fill="white" class="sc-fqkvVR eDtKfR"></rect><text x="10" y="50%" dominant-baseline="middle" text-anchor="start" font-weight="normal" pointer-events="none">category: ReportCategory</text></g></svg><rect width="100%" height="100%" stroke="black" fill="none" class="sc-fqkvVR jAaomD"></rect><path d="M 0 40 H 210" stroke="black" fill="white" class="sc-gEvEer fkqzOi"></path></g></svg><svg x="240" y="30" width="200" height="140" class="Update" fill="#ffffff"><g><rect width="100%" height="50" stroke="none" fill="white" class="sc-fqkvVR eDtKfR"></rect><rect y="50" width="100%" height="90" stroke="none" fill="white" class="sc-fqkvVR eDtKfR"></rect><svg height="50"><text x="50%" y="50%" dominant-baseline="middle" text-anchor="middle" font-weight="bold" pointer-events="none"><tspan x="50%" dy="-8" text-anchor="middle" font-size="85%">«intermediate»</tspan><tspan x="50%" dy="18" text-anchor="middle">Update</tspan></text></svg><svg x="0" y="50.5" width="199" height="30" class="createdAt: Date" fill="#ffffff"><g><rect width="100%" height="100%" stroke="none" fill="white" class="sc-fqkvVR eDtKfR"></rect><text x="10" y="50%" dominant-baseline="middle" text-anchor="start" font-weight="normal" pointer-events="none">createdAt: Date</text></g></svg><svg x="0" y="80.5" width="199" height="30" class="oldStatus: ReportStatus" fill="#ffffff"><g><rect width="100%" height="100%" stroke="none" fill="white" class="sc-fqkvVR eDtKfR"></rect><text x="10" y="50%" dominant-baseline="middle" text-anchor="start" font-weight="normal" pointer-events="none">oldStatus: ReportStatus</text></g></svg><svg x="0" y="110.5" width="199" height="30" class="newStatus: ReportStatus" fill="#ffffff"><g><rect width="100%" height="100%" stroke="none" fill="white" class="sc-fqkvVR eDtKfR"></rect><text x="10" y="50%" dominant-baseline="middle" text-anchor="start" font-weight="normal" pointer-events="none">newStatus: ReportStatus</text></g></svg><rect width="100%" height="100%" stroke="black" fill="none" class="sc-fqkvVR jAaomD"></rect><path d="M 0 50 H 200" stroke="black" fill="white" class="sc-gEvEer fkqzOi"></path></g></svg><svg x="300" y="230" width="160" height="130" class="Notification" fill="#ffffff"><g><rect width="100%" height="40" stroke="none" fill="white" class="sc-fqkvVR eDtKfR"></rect><rect y="40" width="100%" height="90" stroke="none" fill="white" class="sc-fqkvVR eDtKfR"></rect><svg height="40"><text x="50%" y="50%" dominant-baseline="middle" text-anchor="middle" font-weight="bold" pointer-events="none">Notification</text></svg><svg x="0" y="40.5" width="159" height="30" class="createdAt: Date" fill="#ffffff"><g><rect width="100%" height="100%" stroke="none" fill="white" class="sc-fqkvVR eDtKfR"></rect><text x="10" y="50%" dominant-baseline="middle" text-anchor="start" font-weight="normal" pointer-events="none">createdAt: Date</text></g></svg><svg x="0" y="70.5" width="159" height="30" class="message: string" fill="#ffffff"><g><rect width="100%" height="100%" stroke="none" fill="white" class="sc-fqkvVR eDtKfR"></rect><text x="10" y="50%" dominant-baseline="middle" text-anchor="start" font-weight="normal" pointer-events="none">message: string</text></g></svg><svg x="0" y="100.5" width="159" height="30" class="isRead: boolean" fill="#ffffff"><g><rect width="100%" height="100%" stroke="none" fill="white" class="sc-fqkvVR eDtKfR"></rect><text x="10" y="50%" dominant-baseline="middle" text-anchor="start" font-weight="normal" pointer-events="none">isRead: boolean</text></g></svg><rect width="100%" height="100%" stroke="black" fill="none" class="sc-fqkvVR jAaomD"></rect><path d="M 0 40 H 160" stroke="black" fill="white" class="sc-gEvEer fkqzOi"></path></g></svg><svg x="770" y="390" width="430" height="50" class="A message has exactly one sender and one recipient. " fill="#ffffff"><g><path d="M 0 0 L 415 0 L 430 15 L 430 50 L 0 50 L 0 0 Z" stroke-width="1.2" stroke-miterlimit="10" stroke="#949494" fill="#ededed" class="sc-gEvEer dNlWWw"></path><path d="M 415 0 L 415 15 L 430 15" stroke-width="1.2" stroke-miterlimit="10" stroke="black" fill="none" class="sc-gEvEer bFSwyf"></path><text x="215" y="25" text-anchor="middle" width="430" height="50" font-weight="bold" pointer-events="none"><tspan x="215" dy="5.5">A message has exactly one sender and one recipient. </tspan></text></g></svg><svg x="770" y="450" width="660" height="50" class="A reply is modeled as a new message linked to the previous one through inReplyTo" fill="#ffffff"><g><path d="M 0 0 L 645 0 L 660 15 L 660 50 L 0 50 L 0 0 Z" stroke-width="1.2" stroke-miterlimit="10" stroke="#949494" fill="#ededed" class="sc-gEvEer dNlWWw"></path><path d="M 645 0 L 645 15 L 660 15" stroke-width="1.2" stroke-miterlimit="10" stroke="black" fill="none" class="sc-gEvEer bFSwyf"></path><text x="330" y="25" text-anchor="middle" width="660" height="50" font-weight="bold" pointer-events="none"><tspan x="330" dy="5.5">A reply is modeled as a new message linked to the previous one through inReplyTo</tspan></text></g></svg><svg x="70" y="110" width="36.703125" height="60.65625" class="attachedTo" fill="#ffffff"><g><polyline points="5 0,5 50" stroke-width="1" marker-end="url(#marker-45ca3acb-e162-4e71-9092-7d60873b7e48)" stroke="black" fill="none" class="sc-aXZVg eMElBf"></polyline><text x="5" y="8" dx="5" dy="10" text-anchor="start" pointer-events="none">1..3</text><text x="5" y="42" dx="5" text-anchor="start" pointer-events="none">1</text><text x="5" y="8" dx="-5" dy="10" text-anchor="end" pointer-events="none"></text><text x="5" y="42" dx="-5" text-anchor="end" pointer-events="none"></text><text x="5" y="25" dx="5" dominant-baseline="middle" text-anchor="start" pointer-events="none">attachedTo </text></g></svg><svg x="600" y="90" width="10" height="60" class="" fill="#ffffff"><g><marker id="marker-a1757b73-5437-4d5f-9dc4-c08871a0b036" viewBox="0 0 30 30" markerWidth="22" markerHeight="30" refX="30" refY="15" orient="auto" markerUnits="strokeWidth"><path d="M0,1 L0,29 L30,15 z" stroke="black" fill="white" class="sc-gEvEer fkqzOi"></path></marker><polyline points="5 0,5 60" stroke-width="1" marker-end="url(#marker-a1757b73-5437-4d5f-9dc4-c08871a0b036)" stroke="black" fill="none" class="sc-aXZVg eMElBf"></polyline><text x="5" y="8" dx="5" dy="10" text-anchor="start" pointer-events="none"></text><text x="5" y="29" dx="5" text-anchor="start" pointer-events="none"></text><text x="5" y="8" dx="-5" dy="10" text-anchor="end" pointer-events="none"></text><text x="5" y="29" dx="-5" text-anchor="end" pointer-events="none"></text><text x="5" y="30" dx="5" dominant-baseline="middle" text-anchor="start" pointer-events="none"> </text></g></svg><svg x="130" y="460" width="523.90625" height="50" class="createdBy" fill="#ffffff"><g><polyline points="510 0,510 50,5 50,5 10" stroke-width="1" marker-end="url(#marker-f263693b-72f3-43c3-9eeb-f763abb10af1)" stroke="black" fill="none" class="sc-aXZVg eMElBf"></polyline><text x="510" y="8" dx="5" dy="10" text-anchor="start" pointer-events="none">1</text><text x="5" y="18" dx="5" dy="10" text-anchor="start" pointer-events="none">*</text><text x="510" y="8" dx="-5" dy="10" text-anchor="end" pointer-events="none"></text><text x="5" y="18" dx="-5" dy="10" text-anchor="end" pointer-events="none"></text><text x="5" y="35" dx="5" dominant-baseline="middle" text-anchor="start" pointer-events="none">createdBy </text></g></svg><svg x="460" y="420" width="60" height="49.65625" class="" fill="#ffffff"><g><polyline points="60 10,0 10" stroke-width="1" marker-end="url(#marker-a6ed27cb-4327-48d9-9d35-55337e495e5d)" stroke="black" fill="none" class="sc-aXZVg eMElBf"></polyline><text x="52" y="10" dy="21" text-anchor="end" pointer-events="none">1</text><text x="8" y="10" dy="21" text-anchor="start" pointer-events="none">*</text><text x="52" y="10" dy="-10" text-anchor="end" pointer-events="none"></text><text x="8" y="10" dy="-10" text-anchor="start" pointer-events="none"></text><text x="30" y="10" dy="-5" dominant-baseline="text-after-edge" text-anchor="middle" pointer-events="none"> </text></g></svg><svg x="240" y="425" width="60" height="49.65625" class="" fill="#ffffff"><g><polyline points="60 10,0 10" stroke-width="1" marker-end="url(#marker-fdf41627-fec6-42af-a1b4-4141b764fd98)" stroke="black" fill="none" class="sc-aXZVg eMElBf"></polyline><text x="52" y="10" dy="21" text-anchor="end" pointer-events="none">*</text><text x="8" y="10" dy="21" text-anchor="start" pointer-events="none">1</text><text x="52" y="10" dy="-10" text-anchor="end" pointer-events="none"></text><text x="8" y="10" dy="-10" text-anchor="start" pointer-events="none"></text><text x="30" y="10" dy="-5" dominant-baseline="text-after-edge" text-anchor="middle" pointer-events="none"> </text></g></svg><svg x="760" y="290" width="150" height="49.65625" class="recipient" fill="#ffffff"><g><polyline points="150 10,0 10" stroke-width="1" marker-end="url(#marker-10cf229b-b082-4de9-870a-78335c863183)" stroke="black" fill="none" class="sc-aXZVg eMElBf"></polyline><text x="142" y="10" dy="21" text-anchor="end" pointer-events="none">0.*</text><text x="8" y="10" dy="21" text-anchor="start" pointer-events="none">1</text><text x="142" y="10" dy="-10" text-anchor="end" pointer-events="none"></text><text x="8" y="10" dy="-10" text-anchor="start" pointer-events="none"></text><text x="75" y="10" dy="-5" dominant-baseline="text-after-edge" text-anchor="middle" pointer-events="none">recipient </text></g></svg><svg x="440" y="50" width="40" height="49.65625" class="" fill="#ffffff"><g><polyline points="40 10,0 10" stroke-width="1" marker-end="url(#marker-a97df7f9-588b-45da-8b67-99046afc06a3)" stroke="black" fill="none" class="sc-aXZVg eMElBf"></polyline><text x="32" y="10" dy="21" text-anchor="end" pointer-events="none">1</text><text x="8" y="10" dy="21" text-anchor="start" pointer-events="none">*</text><text x="32" y="10" dy="-10" text-anchor="end" pointer-events="none"></text><text x="8" y="10" dy="-10" text-anchor="start" pointer-events="none"></text><text x="20" y="10" dy="-5" dominant-baseline="text-after-edge" text-anchor="middle" pointer-events="none"> </text></g></svg><svg x="130" y="90" width="110" height="80.65625" class="" fill="#ffffff"><g><polyline points="110 10,5 10,5 70" stroke-width="1" marker-end="url(#marker-4a026012-dbaf-4d91-8ba5-e93fcbeb994c)" stroke="black" fill="none" class="sc-aXZVg eMElBf"></polyline><text x="102" y="10" dy="21" text-anchor="end" pointer-events="none">*</text><text x="5" y="62" dx="5" text-anchor="start" pointer-events="none">1</text><text x="102" y="10" dy="-10" text-anchor="end" pointer-events="none"></text><text x="5" y="62" dx="-5" text-anchor="end" pointer-events="none"></text><text x="5" y="17.5" dx="5" dominant-baseline="middle" text-anchor="start" pointer-events="none"> </text></g></svg><svg x="240" y="285" width="60" height="49.65625" class="" fill="#ffffff"><g><polyline points="60 10,0 10" stroke-width="1" marker-end="url(#marker-a8341867-73bc-4d08-9929-c69fe9ceb3e4)" stroke="black" fill="none" class="sc-aXZVg eMElBf"></polyline><text x="52" y="10" dy="21" text-anchor="end" pointer-events="none">*</text><text x="8" y="10" dy="21" text-anchor="start" pointer-events="none">1</text><text x="52" y="10" dy="-10" text-anchor="end" pointer-events="none"></text><text x="8" y="10" dy="-10" text-anchor="start" pointer-events="none"></text><text x="30" y="10" dy="-5" dominant-baseline="text-after-edge" text-anchor="middle" pointer-events="none"> </text></g></svg><svg x="460" y="285" width="60" height="49.65625" class="" fill="#ffffff"><g><polyline points="0 10,60 10" stroke-width="1" marker-end="url(#marker-c2b72c13-8c2a-47e7-b557-8962106864b4)" stroke="black" fill="none" class="sc-aXZVg eMElBf"></polyline><text x="8" y="10" dy="21" text-anchor="start" pointer-events="none">*</text><text x="52" y="10" dy="21" text-anchor="end" pointer-events="none">1</text><text x="8" y="10" dy="-10" text-anchor="start" pointer-events="none"></text><text x="52" y="10" dy="-10" text-anchor="end" pointer-events="none"></text><text x="30" y="10" dy="-5" dominant-baseline="text-after-edge" text-anchor="middle" pointer-events="none"> </text></g></svg><svg x="985" y="290" width="125" height="100" class="inReplyTo" fill="#ffffff"><g><polyline points="5 60,5 100,125 100,125 10,85 10" stroke-width="1" marker-end="url(#marker-311c46e6-673f-4add-a8cd-bde7d687516c)" stroke="black" fill="none" class="sc-aXZVg eMElBf"></polyline><text x="5" y="68" dx="5" dy="10" text-anchor="start" pointer-events="none">0..*</text><text x="93" y="10" dy="21" text-anchor="start" pointer-events="none">0..1</text><text x="5" y="68" dx="-5" dy="10" text-anchor="end" pointer-events="none"></text><text x="93" y="10" dy="-10" text-anchor="start" pointer-events="none"></text><text x="105" y="10" dy="-5" dominant-baseline="text-after-edge" text-anchor="middle" pointer-events="none">inReplyTo </text></g></svg><svg x="635" y="110" width="383.4375" height="150.65625" class="sender" fill="#ffffff"><g><polyline points="355 140,355 0,5 0,5 40" stroke-width="1" marker-end="url(#marker-50826ae5-92f8-449c-a1a1-20f2efc1bbf0)" stroke="black" fill="none" class="sc-aXZVg eMElBf"></polyline><text x="355" y="132" dx="5" text-anchor="start" pointer-events="none">0..*</text><text x="5" y="32" dx="5" text-anchor="start" pointer-events="none">1</text><text x="355" y="132" dx="-5" text-anchor="end" pointer-events="none"></text><text x="5" y="32" dx="-5" text-anchor="end" pointer-events="none"></text><text x="35" y="0" dy="-5" dominant-baseline="text-after-edge" text-anchor="middle" pointer-events="none">sender </text></g></svg></svg>