<svg width="1211" height="641" xmlns="http://www.w3.org/2000/svg" xmlns:xlink="http://www.w3.org/1999/xlink" fill="#ffffff"><defs><style>
  text {
    fill: #212529;
    font-family: Helvetica Neue, Helvetica, Arial, sans-serif;
    font-size: 16px;
  }

  marker, text {
    fill-opacity: 1;
  }

  * {
    overflow: visible;
  }
</style></defs><svg x="390" y="100" width="320" height="120" class="Web server" fill="#ffffff"><g><g><path d="M 0 8 l 8 -8 H 320 l -8 8 Z" stroke="black" fill="white" class="sc-gEvEer fkqzOi"></path><path d="M 320 0 V 112 l -8 8 V 8 Z" stroke="black" fill="white" class="sc-gEvEer fkqzOi"></path><rect x="0" y="8" width="312" height="111" stroke="black" fill="white" class="sc-fqkvVR uHYUy"></rect></g><text x="50%" y="30" dominant-baseline="middle" text-anchor="middle" font-weight="bold" pointer-events="none"><tspan x="50%" dy="-8" text-anchor="middle" font-size="85%">«node»</tspan><tspan x="50%" dy="18" text-decoration="underline" text-anchor="middle">Web server</tspan></text></g></svg><svg x="410" y="160" width="270" height="40" class="Front-end application" fill="#ffffff"><g><rect width="100%" height="100%" stroke="black" fill="white" class="sc-fqkvVR uHYUy"></rect><text x="50%" y="28" dominant-baseline="auto" text-anchor="middle" font-weight="bold" pointer-events="none">Front-end application</text><g transform="translate(244, 7)"><path d="M 0 0 L 13 0 L 19.2 7.25 L 19.2 24 L 0 24 L 0 0 Z" stroke-width="1.2" stroke-miterlimit="10" stroke="black" fill="white" class="sc-gEvEer fkqzOi"></path><path d="M 13 0 L 13 7.25 L 19.2 7.25" stroke-width="1.2" stroke-miterlimit="10" stroke="black" fill="none" class="sc-gEvEer bFSwyf"></path></g></g></svg><svg x="390" y="300" width="320" height="120" class="Application server" fill="#ffffff"><g><g><path d="M 0 8 l 8 -8 H 320 l -8 8 Z" stroke="black" fill="white" class="sc-gEvEer fkqzOi"></path><path d="M 320 0 V 112 l -8 8 V 8 Z" stroke="black" fill="white" class="sc-gEvEer fkqzOi"></path><rect x="0" y="8" width="312" height="111" stroke="black" fill="white" class="sc-fqkvVR uHYUy"></rect></g><text x="50%" y="30" dominant-baseline="middle" text-anchor="middle" font-weight="bold" pointer-events="none"><tspan x="50%" dy="-8" text-anchor="middle" font-size="85%">«node»</tspan><tspan x="50%" dy="18" text-decoration="underline" text-anchor="middle">Application server</tspan></text></g></svg><svg x="410" y="360" width="270" height="40" class="Back-end application" fill="#ffffff"><g><rect width="100%" height="100%" stroke="black" fill="white" class="sc-fqkvVR uHYUy"></rect><text x="50%" y="28" dominant-baseline="auto" text-anchor="middle" font-weight="bold" pointer-events="none">Back-end application</text><g transform="translate(244, 7)"><path d="M 0 0 L 13 0 L 19.2 7.25 L 19.2 24 L 0 24 L 0 0 Z" stroke-width="1.2" stroke-miterlimit="10" stroke="black" fill="white" class="sc-gEvEer fkqzOi"></path><path d="M 13 0 L 13 7.25 L 19.2 7.25" stroke-width="1.2" stroke-miterlimit="10" stroke="black" fill="none" class="sc-gEvEer bFSwyf"></path></g></g></svg><svg x="390" y="500" width="320" height="120" class="Data server" fill="#ffffff"><g><g><path d="M 0 8 l 8 -8 H 320 l -8 8 Z" stroke="black" fill="white" class="sc-gEvEer fkqzOi"></path><path d="M 320 0 V 112 l -8 8 V 8 Z" stroke="black" fill="white" class="sc-gEvEer fkqzOi"></path><rect x="0" y="8" width="312" height="111" stroke="black" fill="white" class="sc-fqkvVR uHYUy"></rect></g><text x="50%" y="30" dominant-baseline="middle" text-anchor="middle" font-weight="bold" pointer-events="none"><tspan x="50%" dy="-8" text-anchor="middle" font-size="85%">«node»</tspan><tspan x="50%" dy="18" text-decoration="underline" text-anchor="middle">Data server</tspan></text></g></svg><svg x="470" y="560" width="160" height="40" class="DBMS" fill="#ffffff"><g><rect width="100%" height="100%" stroke="black" fill="white" class="sc-fqkvVR uHYUy"></rect><text x="50%" y="28" dominant-baseline="auto" text-anchor="middle" font-weight="bold" pointer-events="none">DBMS</text><g transform="translate(134, 7)"><path d="M 0 0 L 13 0 L 19.2 7.25 L 19.2 24 L 0 24 L 0 0 Z" stroke-width="1.2" stroke-miterlimit="10" stroke="black" fill="white" class="sc-gEvEer fkqzOi"></path><path d="M 13 0 L 13 7.25 L 19.2 7.25" stroke-width="1.2" stroke-miterlimit="10" stroke="black" fill="none" class="sc-gEvEer bFSwyf"></path></g></g></svg><svg x="20" y="100" width="240" height="120" class="User PC" fill="#ffffff"><g><g><path d="M 0 8 l 8 -8 H 240 l -8 8 Z" stroke="black" fill="white" class="sc-gEvEer fkqzOi"></path><path d="M 240 0 V 112 l -8 8 V 8 Z" stroke="black" fill="white" class="sc-gEvEer fkqzOi"></path><rect x="0" y="8" width="232" height="111" stroke="black" fill="white" class="sc-fqkvVR uHYUy"></rect></g><text x="50%" y="30" dominant-baseline="middle" text-anchor="middle" font-weight="bold" pointer-events="none"><tspan x="50%" dy="-8" text-anchor="middle" font-size="85%">«node»</tspan><tspan x="50%" dy="18" text-decoration="underline" text-anchor="middle">User PC</tspan></text></g></svg><svg x="40" y="150" width="190" height="60" class="Browser" fill="#ffffff"><g><g><path d="M 0 8 l 8 -8 H 190 l -8 8 Z" stroke="black" fill="white" class="sc-gEvEer fkqzOi"></path><path d="M 190 0 V 52 l -8 8 V 8 Z" stroke="black" fill="white" class="sc-gEvEer fkqzOi"></path><rect x="0" y="8" width="182" height="51" stroke="black" fill="white" class="sc-fqkvVR uHYUy"></rect></g><text x="50%" y="30" dominant-baseline="middle" text-anchor="middle" font-weight="bold" pointer-events="none"><tspan x="50%" dy="-8" text-anchor="middle" font-size="85%">«execution environment»</tspan><tspan x="50%" dy="18" text-decoration="underline" text-anchor="middle">Browser</tspan></text></g></svg><svg x="20" y="300" width="240" height="120" class="User mobile device" fill="#ffffff"><g><g><path d="M 0 8 l 8 -8 H 240 l -8 8 Z" stroke="black" fill="white" class="sc-gEvEer fkqzOi"></path><path d="M 240 0 V 112 l -8 8 V 8 Z" stroke="black" fill="white" class="sc-gEvEer fkqzOi"></path><rect x="0" y="8" width="232" height="111" stroke="black" fill="white" class="sc-fqkvVR uHYUy"></rect></g><text x="50%" y="30" dominant-baseline="middle" text-anchor="middle" font-weight="bold" pointer-events="none"><tspan x="50%" dy="-8" text-anchor="middle" font-size="85%">«node»</tspan><tspan x="50%" dy="18" text-decoration="underline" text-anchor="middle">User mobile device</tspan></text></g></svg><svg x="40" y="350" width="190" height="60" class="Browser" fill="#ffffff"><g><g><path d="M 0 8 l 8 -8 H 190 l -8 8 Z" stroke="black" fill="white" class="sc-gEvEer fkqzOi"></path><path d="M 190 0 V 52 l -8 8 V 8 Z" stroke="black" fill="white" class="sc-gEvEer fkqzOi"></path><rect x="0" y="8" width="182" height="51" stroke="black" fill="white" class="sc-fqkvVR uHYUy"></rect></g><text x="50%" y="30" dominant-baseline="middle" text-anchor="middle" font-weight="bold" pointer-events="none"><tspan x="50%" dy="-8" text-anchor="middle" font-size="85%">«execution environment»</tspan><tspan x="50%" dy="18" text-decoration="underline" text-anchor="middle">Browser</tspan></text></g></svg><svg x="930" y="280" width="260" height="70" class="E-mail service" fill="#ffffff"><g><g><path d="M 0 8 l 8 -8 H 260 l -8 8 Z" stroke="black" fill="white" class="sc-gEvEer fkqzOi"></path><path d="M 260 0 V 62 l -8 8 V 8 Z" stroke="black" fill="white" class="sc-gEvEer fkqzOi"></path><rect x="0" y="8" width="252" height="61" stroke="black" fill="white" class="sc-fqkvVR uHYUy"></rect></g><text x="50%" y="30" dominant-baseline="middle" text-anchor="middle" font-weight="bold" pointer-events="none"><tspan x="50%" dy="-8" text-anchor="middle" font-size="85%">«external system»</tspan><tspan x="50%" dy="18" text-decoration="underline" text-anchor="middle">E-mail service</tspan></text></g></svg><svg x="930" y="120" width="260" height="70" class="OpenStreetMap" fill="#ffffff"><g><g><path d="M 0 8 l 8 -8 H 260 l -8 8 Z" stroke="black" fill="white" class="sc-gEvEer fkqzOi"></path><path d="M 260 0 V 62 l -8 8 V 8 Z" stroke="black" fill="white" class="sc-gEvEer fkqzOi"></path><rect x="0" y="8" width="252" height="61" stroke="black" fill="white" class="sc-fqkvVR uHYUy"></rect></g><text x="50%" y="30" dominant-baseline="middle" text-anchor="middle" font-weight="bold" pointer-events="none"><tspan x="50%" dy="-8" text-anchor="middle" font-size="85%">«external system»</tspan><tspan x="50%" dy="18" text-decoration="underline" text-anchor="middle">OpenStreetMap</tspan></text></g></svg><svg x="470" y="20" width="170" height="50" class="System/Participium" fill="#ffffff"><g><path d="M 0 0 L 155 0 L 170 15 L 170 50 L 0 50 L 0 0 Z" stroke-width="1.2" stroke-miterlimit="10" stroke="#949494" fill="#ededed" class="sc-gEvEer dNlWWw"></path><path d="M 155 0 L 155 15 L 170 15" stroke-width="1.2" stroke-miterlimit="10" stroke="black" fill="none" class="sc-gEvEer bFSwyf"></path><text x="85" y="25" text-anchor="middle" width="170" height="50" font-weight="bold" pointer-events="none"><tspan x="85" dy="5.5">System/Participium</tspan></text></g></svg><svg x="960" y="20" width="200" height="50" class="External systems" fill="#ffffff"><g><path d="M 0 0 L 185 0 L 200 15 L 200 50 L 0 50 L 0 0 Z" stroke-width="1.2" stroke-miterlimit="10" stroke="#949494" fill="#ededed" class="sc-gEvEer dNlWWw"></path><path d="M 185 0 L 185 15 L 200 15" stroke-width="1.2" stroke-miterlimit="10" stroke="black" fill="none" class="sc-gEvEer bFSwyf"></path><text x="100" y="25" text-anchor="middle" width="200" height="50" font-weight="bold" pointer-events="none"><tspan x="100" dy="5.5">External systems</tspan></text></g></svg><svg x="60" y="20" width="160" height="50" class="System users" fill="#ffffff"><g><path d="M 0 0 L 145 0 L 160 15 L 160 50 L 0 50 L 0 0 Z" stroke-width="1.2" stroke-miterlimit="10" stroke="#949494" fill="#ededed" class="sc-gEvEer dNlWWw"></path><path d="M 145 0 L 145 15 L 160 15" stroke-width="1.2" stroke-miterlimit="10" stroke="black" fill="none" class="sc-gEvEer bFSwyf"></path><text x="80" y="25" text-anchor="middle" width="160" height="50" font-weight="bold" pointer-events="none"><tspan x="80" dy="5.5">System users</tspan></text></g></svg><svg x="550" y="220" width="57.7734375" height="80" class="HTTPS" fill="#ffffff"><g><polyline points="0 0,0 80" stroke-width="1" stroke="black" fill="none" class="sc-aXZVg eMElBf"></polyline><text x="0" y="40" dominant-baseline="middle" text-anchor="start" font-weight="bold" pointer-events="none" dx="5">HTTPS</text></g></svg><svg x="550" y="420" width="37.328125" height="80" class="TCP" fill="#ffffff"><g><polyline points="0 0,0 80" stroke-width="1" stroke="black" fill="none" class="sc-aXZVg eMElBf"></polyline><text x="0" y="40" dominant-baseline="middle" text-anchor="start" font-weight="bold" pointer-events="none" dx="5">TCP</text></g></svg><svg x="260" y="120" width="130" height="41" class="HTTPS" fill="#ffffff"><g><polyline points="0 40,130 40" stroke-width="1" stroke="black" fill="none" class="sc-aXZVg eMElBf"></polyline><text x="65" y="40" dominant-baseline="text-after-edge" text-anchor="middle" font-weight="bold" pointer-events="none" dy="-5">HTTPS</text></g></svg><svg x="260" y="160" width="130" height="200" class="HTTPS" fill="#ffffff"><g><polyline points="0 200,65 200,65 0,130 0" stroke-width="1" stroke="black" fill="none" class="sc-aXZVg eMElBf"></polyline><text x="65" y="100" dominant-baseline="middle" text-anchor="start" font-weight="bold" pointer-events="none" dx="5">HTTPS</text></g></svg><svg x="710" y="285" width="220" height="41" class="HTTPS" fill="#ffffff"><g><polyline points="0 40,220 40" stroke-width="1" stroke="black" fill="none" class="sc-aXZVg eMElBf"></polyline><text x="110" y="40" dominant-baseline="text-after-edge" text-anchor="middle" font-weight="bold" pointer-events="none" dy="-5">HTTPS</text></g></svg><svg x="710" y="115" width="220" height="41" class="HTTPS" fill="#ffffff"><g><polyline points="220 40,0 40" stroke-width="1" stroke="black" fill="none" class="sc-aXZVg eMElBf"></polyline><text x="110" y="40" dominant-baseline="text-after-edge" text-anchor="middle" font-weight="bold" pointer-events="none" dy="-5">HTTPS</text></g></svg></svg>