<svg width="821" height="631" xmlns="http://www.w3.org/2000/svg" xmlns:xlink="http://www.w3.org/1999/xlink" fill="#ffffff"><defs><style>
  text {
    fill: #212529;
    font-family: Helvetica Neue, Helvetica, Arial, sans-serif;
    font-size: 16px;
  }

  marker, text {
    fill-opacity: 1;
  }

  * {
    overflow: visible;
  }
</style></defs><svg x="70" y="20" width="80" height="140" class="Visitor" fill="#ffffff"><g><rect width="100%" height="100%" fill="none"></rect><g stroke="black" stroke-width="2"><circle cx="40" cy="25" r="15" stroke="black" fill="white" class="sc-iGgWBj fYmGgq"></circle><line x1="40" y1="40" x2="40" y2="80" stroke="black" class="sc-imWYAI kESMEa"></line><line x1="10" y1="50" x2="70" y2="50" stroke="black" class="sc-imWYAI kESMEa"></line><line x1="40" y1="80" x2="10" y2="110" stroke="black" class="sc-imWYAI kESMEa"></line><line x1="40" y1="80" x2="70" y2="110" stroke="black" class="sc-imWYAI kESMEa"></line></g><text x="40" y="130" dominant-baseline="middle" text-anchor="middle" font-weight="bold" pointer-events="none">Visitor</text></g></svg><svg x="630" y="60" width="160" height="100" class="OpenStreetMap" fill="#ffffff"><g><rect width="100%" height="100%" stroke="black" fill="white" class="sc-fqkvVR uHYUy"></rect><text x="50%" y="16" dominant-baseline="middle" text-anchor="middle" font-weight="bold" pointer-events="none">OpenStreetMap</text><text x="50%" y="32" dominant-baseline="middle" text-anchor="middle" font-weight="bold" pointer-events="none">External System</text></g></svg><svg x="640" y="250" width="160" height="100" class="Email service" fill="#ffffff"><g><rect width="100%" height="100%" stroke="black" fill="white" class="sc-fqkvVR uHYUy"></rect><text x="50%" y="16" dominant-baseline="middle" text-anchor="middle" font-weight="bold" pointer-events="none">Email service</text><text x="50%" y="32" dominant-baseline="middle" text-anchor="middle" font-weight="bold" pointer-events="none">External System</text></g></svg><svg x="60" y="240" width="80" height="140" class="Registered Citizen" fill="#ffffff"><g><rect width="100%" height="100%" fill="none"></rect><g stroke="black" stroke-width="2"><circle cx="40" cy="25" r="15" stroke="black" fill="white" class="sc-iGgWBj fYmGgq"></circle><line x1="40" y1="40" x2="40" y2="80" stroke="black" class="sc-imWYAI kESMEa"></line><line x1="10" y1="50" x2="70" y2="50" stroke="black" class="sc-imWYAI kESMEa"></line><line x1="40" y1="80" x2="10" y2="110" stroke="black" class="sc-imWYAI kESMEa"></line><line x1="40" y1="80" x2="70" y2="110" stroke="black" class="sc-imWYAI kESMEa"></line></g><text x="40" y="130" dominant-baseline="middle" text-anchor="middle" font-weight="bold" pointer-events="none">Registered Citizen</text></g></svg><svg x="260" y="100" width="280" height="250" class="System" fill="#ffffff"><g><rect width="100%" height="100%" stroke="black" fill="white" class="sc-fqkvVR uHYUy"></rect><text x="50%" y="16" dominant-baseline="middle" text-anchor="middle" font-weight="bold" pointer-events="none">System</text></g></svg><svg x="320" y="180" width="160" height="100" class="Participium" fill="#ffffff"><g><ellipse cx="50%" cy="50%" rx="50%" ry="50%" stroke="black" fill="white" class="sc-kAyceB ldFMTf"></ellipse><text x="50%" y="50%" dominant-baseline="middle" text-anchor="middle" font-weight="bold" pointer-events="none">Participium</text></g></svg><svg x="20" y="450" width="80" height="140" class="___    Municipal Operator" fill="#ffffff"><g><rect width="100%" height="100%" fill="none"></rect><g stroke="black" stroke-width="2"><circle cx="40" cy="25" r="15" stroke="black" fill="white" class="sc-iGgWBj fYmGgq"></circle><line x1="40" y1="40" x2="40" y2="80" stroke="black" class="sc-imWYAI kESMEa"></line><line x1="10" y1="50" x2="70" y2="50" stroke="black" class="sc-imWYAI kESMEa"></line><line x1="40" y1="80" x2="10" y2="110" stroke="black" class="sc-imWYAI kESMEa"></line><line x1="40" y1="80" x2="70" y2="110" stroke="black" class="sc-imWYAI kESMEa"></line></g><text x="40" y="130" dominant-baseline="middle" text-anchor="middle" font-weight="bold" pointer-events="none">___    Municipal Operator</text></g></svg><svg x="220" y="470" width="80" height="140" class="Admin" fill="#ffffff"><g><rect width="100%" height="100%" fill="none"></rect><g stroke="black" stroke-width="2"><circle cx="40" cy="25" r="15" stroke="black" fill="white" class="sc-iGgWBj fYmGgq"></circle><line x1="40" y1="40" x2="40" y2="80" stroke="black" class="sc-imWYAI kESMEa"></line><line x1="10" y1="50" x2="70" y2="50" stroke="black" class="sc-imWYAI kESMEa"></line><line x1="40" y1="80" x2="10" y2="110" stroke="black" class="sc-imWYAI kESMEa"></line><line x1="40" y1="80" x2="70" y2="110" stroke="black" class="sc-imWYAI kESMEa"></line></g><text x="40" y="130" dominant-baseline="middle" text-anchor="middle" font-weight="bold" pointer-events="none">Admin</text></g></svg><svg x="480" y="135" width="150" height="95" class="" fill="#ffffff"><g><marker id="marker-5dc0c9a2-abfd-4cf6-b7ab-a9ff2e534d08" viewBox="0 0 30 30" markerWidth="22" markerHeight="30" refX="30" refY="15" orient="auto" markerUnits="strokeWidth"><path d="M0,1 L0,29 L30,15 z" stroke="black" fill="white" class="sc-gEvEer fkqzOi"></path></marker><polyline points="150 0,0 95" stroke-width="1" marker-end="url(#marker-5dc0c9a2-abfd-4cf6-b7ab-a9ff2e534d08)" stroke="black" fill="none" class="sc-aXZVg eMElBf"></polyline></g></svg><svg x="150" y="90" width="170" height="140" class="" fill="#ffffff"><g><marker id="marker-8e86f62f-6ed0-4167-891f-74e034b7d10a" viewBox="0 0 30 30" markerWidth="22" markerHeight="30" refX="30" refY="15" orient="auto" markerUnits="strokeWidth"><path d="M0,1 L0,29 L30,15 z" stroke="black" fill="white" class="sc-gEvEer fkqzOi"></path></marker><polyline points="0 0,170 140" stroke-width="1" marker-end="url(#marker-8e86f62f-6ed0-4167-891f-74e034b7d10a)" stroke="black" fill="none" class="sc-aXZVg eMElBf"></polyline></g></svg><svg x="140" y="230" width="180" height="80" class="" fill="#ffffff"><g><marker id="marker-12a17ce8-2a93-4c85-8881-b73298522adf" viewBox="0 0 30 30" markerWidth="22" markerHeight="30" refX="30" refY="15" orient="auto" markerUnits="strokeWidth"><path d="M0,1 L0,29 L30,15 z" stroke="black" fill="white" class="sc-gEvEer fkqzOi"></path></marker><polyline points="0 80,180 0" stroke-width="1" marker-end="url(#marker-12a17ce8-2a93-4c85-8881-b73298522adf)" stroke="black" fill="none" class="sc-aXZVg eMElBf"></polyline></g></svg><svg x="480" y="230" width="160" height="70" class="" fill="#ffffff"><g><marker id="marker-df9b83ca-0bf4-4312-8864-c21c401b941c" viewBox="0 0 30 30" markerWidth="22" markerHeight="30" refX="30" refY="15" orient="auto" markerUnits="strokeWidth"><path d="M0,1 L0,29 L30,15 z" stroke="black" fill="white" class="sc-gEvEer fkqzOi"></path></marker><polyline points="160 70,0 0" stroke-width="1" marker-end="url(#marker-df9b83ca-0bf4-4312-8864-c21c401b941c)" stroke="black" fill="none" class="sc-aXZVg eMElBf"></polyline></g></svg><svg x="60" y="380" width="40" height="70" class="" fill="#ffffff"><g><marker id="marker-7722ff90-f6a8-431b-83ae-e251b2455468" viewBox="0 0 30 30" markerWidth="22" markerHeight="30" refX="30" refY="15" orient="auto" markerUnits="strokeWidth"><path d="M0,1 L0,29 L30,15 z" stroke="black" fill="white" class="sc-gEvEer fkqzOi"></path></marker><polyline points="0 70,40 0" stroke-width="1" marker-end="url(#marker-7722ff90-f6a8-431b-83ae-e251b2455468)" stroke="black" fill="none" class="sc-aXZVg eMElBf"></polyline></g></svg><svg x="120" y="380" width="140" height="90" class="" fill="#ffffff"><g><marker id="marker-ce00e36b-da92-4dd6-9a00-4f8fd5be7757" viewBox="0 0 30 30" markerWidth="22" markerHeight="30" refX="30" refY="15" orient="auto" markerUnits="strokeWidth"><path d="M0,1 L0,29 L30,15 z" stroke="black" fill="white" class="sc-gEvEer fkqzOi"></path></marker><polyline points="140 90,0 0" stroke-width="1" marker-end="url(#marker-ce00e36b-da92-4dd6-9a00-4f8fd5be7757)" stroke="black" fill="none" class="sc-aXZVg eMElBf"></polyline></g></svg></svg>