<svg xmlns="http://www.w3.org/2000/svg" viewBox="0 0 1100 772" font-family="Segoe UI, Arial, sans-serif" font-size="11">
<rect width="1100" height="772" fill="white"/>
<text x="550.0" y="30" text-anchor="middle" font-size="16" font-weight="bold" fill="#333">Participium Project Schedule</text>
<line x1="380.0" y1="70" x2="380.0" y2="752" stroke="#e0e0e0" stroke-width="0.5"/>
<text x="397.5" y="60" text-anchor="middle" font-size="9" fill="#888">W1</text>
<line x1="415.0" y1="70" x2="415.0" y2="752" stroke="#e0e0e0" stroke-width="0.5"/>
<text x="432.5" y="60" text-anchor="middle" font-size="9" fill="#888">W2</text>
<line x1="450.0" y1="70" x2="450.0" y2="752" stroke="#e0e0e0" stroke-width="0.5"/>
<text x="467.5" y="60" text-anchor="middle" font-size="9" fill="#888">W3</text>
<line x1="485.0" y1="70" x2="485.0" y2="752" stroke="#e0e0e0" stroke-width="0.5"/>
<text x="502.5" y="60" text-anchor="middle" font-size="9" fill="#888">W4</text>
<line x1="520.0" y1="70" x2="520.0" y2="752" stroke="#e0e0e0" stroke-width="0.5"/>
<text x="537.5" y="60" text-anchor="middle" font-size="9" fill="#888">W5</text>
<line x1="555.0" y1="70" x2="555.0" y2="752" stroke="#e0e0e0" stroke-width="0.5"/>
<text x="572.5" y="60" text-anchor="middle" font-size="9" fill="#888">W6</text>
<line x1="590.0" y1="70" x2="590.0" y2="752" stroke="#e0e0e0" stroke-width="0.5"/>
<text x="607.5" y="60" text-anchor="middle" font-size="9" fill="#888">W7</text>
<line x1="625.0" y1="70" x2="625.0" y2="752" stroke="#e0e0e0" stroke-width="0.5"/>
<text x="642.5" y="60" text-anchor="middle" font-size="9" fill="#888">W8</text>
<line x1="660.0" y1="70" x2="660.0" y2="752" stroke="#e0e0e0" stroke-width="0.5"/>
<text x="677.5" y="60" text-anchor="middle" font-size="9" fill="#888">W9</text>
<line x1="695.0" y1="70" x2="695.0" y2="752" stroke="#e0e0e0" stroke-width="0.5"/>
<text x="712.5" y="60" text-anchor="middle" font-size="9" fill="#888">W10</text>
<line x1="730.0" y1="70" x2="730.0" y2="752" stroke="#e0e0e0" stroke-width="0.5"/>
<text x="747.5" y="60" text-anchor="middle" font-size="9" fill="#888">W11</text>
<line x1="765.0" y1="70" x2="765.0" y2="752" stroke="#e0e0e0" stroke-width="0.5"/>
<text x="782.5" y="60" text-anchor="middle" font-size="9" fill="#888">W12</text>
<line x1="800.0" y1="70" x2="800.0" y2="752" stroke="#e0e0e0" stroke-width="0.5"/>
<text x="817.5" y="60" text-anchor="middle" font-size="9" fill="#888">W13</text>
<line x1="835.0" y1="70" x2="835.0" y2="752" stroke="#e0e0e0" stroke-width="0.5"/>
<text x="852.5" y="60" text-anchor="middle" font-size="9" fill="#888">W14</text>
<line x1="870.0" y1="70" x2="870.0" y2="752" stroke="#e0e0e0" stroke-width="0.5"/>
<text x="887.5" y="60" text-anchor="middle" font-size="9" fill="#888">W15</text>
<line x1="905.0" y1="70" x2="905.0" y2="752" stroke="#e0e0e0" stroke-width="0.5"/>
<text x="922.5" y="60" text-anchor="middle" font-size="9" fill="#888">W16</text>
<line x1="940.0" y1="70" x2="940.0" y2="752" stroke="#e0e0e0" stroke-width="0.5"/>
<text x="957.5" y="60" text-anchor="middle" font-size="9" fill="#888">W17</text>
<line x1="975.0" y1="70" x2="975.0" y2="752" stroke="#e0e0e0" stroke-width="0.5"/>
<text x="992.5" y="60" text-anchor="middle" font-size="9" fill="#888">W18</text>
<line x1="1010.0" y1="70" x2="1010.0" y2="752" stroke="#e0e0e0" stroke-width="0.5"/>
<text x="1027.5" y="60" text-anchor="middle" font-size="9" fill="#888">W19</text>
<line x1="1045.0" y1="70" x2="1045.0" y2="752" stroke="#e0e0e0" stroke-width="0.5"/>
<text x="1062.5" y="60" text-anchor="middle" font-size="9" fill="#888">W20</text>
<line x1="1080.0" y1="70" x2="1080.0" y2="752" stroke="#e0e0e0" stroke-width="0.5"/>
<rect x="0" y="70" width="1100" height="28" fill="#e8f0fe" opacity="0.7"/>
<text x="10" y="88" font-size="11" font-weight="bold" fill="#555">WP1 Requirements</text>
<rect x="0" y="102" width="1100" height="32" fill="#e8f0fe" opacity="0.2"/>
<text x="10" y="122.0" font-size="10" fill="#333">A1.1  Project initiation, scope baseline, and delivery plan</text>
<rect x="380.0" y="108.0" width="35.0" height="20" rx="3" fill="#4285f4" opacity="0.85"/>
<rect x="0" y="134" width="1100" height="32" fill="#e8f0fe" opacity="0.2"/>
<text x="10" y="154.0" font-size="10" fill="#333">A1.2  Requirements engineering and traceability</text>
<rect x="415.0" y="140.0" width="70.0" height="20" rx="3" fill="#4285f4" opacity="0.85"/>
<text x="450.0" y="154.0" text-anchor="middle" font-size="9" fill="white" font-weight="bold">W2–W3</text>
<rect x="0" y="166" width="1100" height="32" fill="#e8f0fe" opacity="0.2"/>
<text x="10" y="186.0" font-size="10" fill="#333">◆ Requirements baseline</text>
<polygon points="467.5,175.0 474.5,182.0 467.5,189.0 460.5,182.0" fill="#4285f4"/>
<rect x="0" y="198" width="1100" height="28" fill="#fef7e0" opacity="0.7"/>
<text x="10" y="216" font-size="11" font-weight="bold" fill="#555">WP2 Architecture &amp; Design</text>
<rect x="0" y="230" width="1100" height="32" fill="#fef7e0" opacity="0.2"/>
<text x="10" y="250.0" font-size="10" fill="#333">A2.1  UX structure and public/citizen workflow design</text>
<rect x="485.0" y="236.0" width="70.0" height="20" rx="3" fill="#f9ab00" opacity="0.85"/>
<text x="520.0" y="250.0" text-anchor="middle" font-size="9" fill="white" font-weight="bold">W4–W5</text>
<rect x="0" y="262" width="1100" height="32" fill="#fef7e0" opacity="0.2"/>
<text x="10" y="282.0" font-size="10" fill="#333">A2.2  Architecture, domain model, and deployment design</text>
<rect x="485.0" y="268.0" width="70.0" height="20" rx="3" fill="#f9ab00" opacity="0.85"/>
<text x="520.0" y="282.0" text-anchor="middle" font-size="9" fill="white" font-weight="bold">W4–W5</text>
<rect x="0" y="294" width="1100" height="32" fill="#fef7e0" opacity="0.2"/>
<text x="10" y="314.0" font-size="10" fill="#333">A2.3  Infrastructure and external integration setup</text>
<rect x="485.0" y="300.0" width="70.0" height="20" rx="3" fill="#f9ab00" opacity="0.85"/>
<text x="520.0" y="314.0" text-anchor="middle" font-size="9" fill="white" font-weight="bold">W4–W5</text>
<rect x="0" y="326" width="1100" height="28" fill="#e8f5e9" opacity="0.7"/>
<text x="10" y="344" font-size="11" font-weight="bold" fill="#555">WP3 Implementation</text>
<rect x="0" y="358" width="1100" height="32" fill="#e8f5e9" opacity="0.2"/>
<text x="10" y="378.0" font-size="10" fill="#333">A3.1  Citizen account and profile implementation</text>
<rect x="555.0" y="364.0" width="70.0" height="20" rx="3" fill="#34a853" opacity="0.85"/>
<text x="590.0" y="378.0" text-anchor="middle" font-size="9" fill="white" font-weight="bold">W6–W7</text>
<rect x="0" y="390" width="1100" height="32" fill="#e8f5e9" opacity="0.2"/>
<text x="10" y="410.0" font-size="10" fill="#333">A3.2  Report submission and public consultation</text>
<rect x="625.0" y="396.0" width="140.0" height="20" rx="3" fill="#34a853" opacity="0.85"/>
<text x="695.0" y="410.0" text-anchor="middle" font-size="9" fill="white" font-weight="bold">W8–W11</text>
<rect x="0" y="422" width="1100" height="32" fill="#e8f5e9" opacity="0.2"/>
<text x="10" y="442.0" font-size="10" fill="#333">A3.3  Municipal report management</text>
<rect x="625.0" y="428.0" width="105.0" height="20" rx="3" fill="#34a853" opacity="0.4"/>
<text x="677.5" y="442.0" text-anchor="middle" font-size="9" fill="white" font-weight="bold">W8–W10</text>
<rect x="0" y="454" width="1100" height="32" fill="#e8f5e9" opacity="0.2"/>
<text x="10" y="474.0" font-size="10" fill="#333">A3.4  Notifications, email delivery, and direct messaging</text>
<rect x="625.0" y="460.0" width="105.0" height="20" rx="3" fill="#34a853" opacity="0.4"/>
<text x="677.5" y="474.0" text-anchor="middle" font-size="9" fill="white" font-weight="bold">W8–W10</text>
<rect x="0" y="486" width="1100" height="32" fill="#e8f5e9" opacity="0.2"/>
<text x="10" y="506.0" font-size="10" fill="#333">A3.5  Statistics, reporting, and administration</text>
<rect x="765.0" y="492.0" width="105.0" height="20" rx="3" fill="#34a853" opacity="0.85"/>
<text x="817.5" y="506.0" text-anchor="middle" font-size="9" fill="white" font-weight="bold">W12–W14</text>
<rect x="0" y="518" width="1100" height="28" fill="#fce4ec" opacity="0.7"/>
<text x="10" y="536" font-size="11" font-weight="bold" fill="#555">WP4 Verification &amp; Validation</text>
<rect x="0" y="550" width="1100" height="32" fill="#fce4ec" opacity="0.2"/>
<text x="10" y="570.0" font-size="10" fill="#333">A4.1  System integration and regression testing</text>
<rect x="870.0" y="556.0" width="105.0" height="20" rx="3" fill="#ea4335" opacity="0.85"/>
<text x="922.5" y="570.0" text-anchor="middle" font-size="9" fill="white" font-weight="bold">W15–W17</text>
<rect x="0" y="582" width="1100" height="32" fill="#fce4ec" opacity="0.2"/>
<text x="10" y="602.0" font-size="10" fill="#333">◆ Integrated baseline</text>
<polygon points="957.5,591.0 964.5,598.0 957.5,605.0 950.5,598.0" fill="#ea4335"/>
<rect x="0" y="614" width="1100" height="32" fill="#fce4ec" opacity="0.2"/>
<text x="10" y="634.0" font-size="10" fill="#333">A4.2  Security, privacy, usability, and data-export validation</text>
<rect x="975.0" y="620.0" width="70.0" height="20" rx="3" fill="#ea4335" opacity="0.85"/>
<text x="1010.0" y="634.0" text-anchor="middle" font-size="9" fill="white" font-weight="bold">W18–W19</text>
<rect x="0" y="646" width="1100" height="28" fill="#f3e5f5" opacity="0.7"/>
<text x="10" y="664" font-size="11" font-weight="bold" fill="#555">WP5 Deployment &amp; Go Live</text>
<rect x="0" y="678" width="1100" height="32" fill="#f3e5f5" opacity="0.2"/>
<text x="10" y="698.0" font-size="10" fill="#333">A5.1  Release preparation and operational documentation</text>
<rect x="1045.0" y="684.0" width="35.0" height="20" rx="3" fill="#ab47bc" opacity="0.85"/>
<rect x="0" y="710" width="1100" height="32" fill="#f3e5f5" opacity="0.2"/>
<text x="10" y="730.0" font-size="10" fill="#333">◆ Release candidate</text>
<polygon points="1062.5,719.0 1069.5,726.0 1062.5,733.0 1055.5,726.0" fill="#ab47bc"/>
<rect x="380" y="752" width="12" height="12" rx="2" fill="#444444"/>
<text x="396" y="762" font-size="9" fill="#666">Critical path</text>
<rect x="480" y="752" width="12" height="12" rx="2" fill="#bbbbbb"/>
<text x="496" y="762" font-size="9" fill="#666">Non-critical</text>
<polygon points="586,758 593,765 586,772 579,765" fill="#444444"/>
<text x="598" y="762" font-size="9" fill="#666">Milestone</text>
</svg>