<svg width="1751" height="1291" xmlns="http://www.w3.org/2000/svg" xmlns:xlink="http://www.w3.org/1999/xlink" fill="#ffffff"><defs><style>
  text {
    fill: #212529;
    font-family: Helvetica Neue, Helvetica, Arial, sans-serif;
    font-size: 16px;
  }

  marker, text {
    fill-opacity: 1;
  }

  * {
    overflow: visible;
  }
</style></defs><svg x="420" y="20" width="860" height="1070" class="System" fill="#ffffff"><g><rect width="100%" height="100%" stroke="black" fill="white" class="sc-fqkvVR uHYUy"></rect><text x="50%" y="16" dominant-baseline="middle" text-anchor="middle" font-weight="bold" pointer-events="none">System</text></g></svg><svg x="930" y="70" width="200" height="100" class="UC-01 Register account" fill="#ffffff"><g><ellipse cx="50%" cy="50%" rx="50%" ry="50%" stroke="black" fill="white" class="sc-kAyceB ldFMTf"></ellipse><text x="50%" y="50%" dominant-baseline="middle" text-anchor="middle" font-weight="bold" pointer-events="none">UC-01 Register account</text></g></svg><svg x="1010" y="180" width="200" height="100" class="UC-02 Login" fill="#ffffff"><g><ellipse cx="50%" cy="50%" rx="50%" ry="50%" stroke="black" fill="white" class="sc-kAyceB ldFMTf"></ellipse><text x="50%" y="50%" dominant-baseline="middle" text-anchor="middle" font-weight="bold" pointer-events="none">UC-02 Login</text></g></svg><svg x="690" y="570" width="200" height="100" class="UC-03 Submit report" fill="#ffffff"><g><ellipse cx="50%" cy="50%" rx="50%" ry="50%" stroke="black" fill="white" class="sc-kAyceB ldFMTf"></ellipse><text x="50%" y="50%" dominant-baseline="middle" text-anchor="middle" font-weight="bold" pointer-events="none">UC-03 Submit report</text></g></svg><svg x="750" y="240" width="240" height="100" class="UC-04 Browse report on map" fill="#ffffff"><g><ellipse cx="50%" cy="50%" rx="50%" ry="50%" stroke="black" fill="white" class="sc-kAyceB ldFMTf"></ellipse><text x="50%" y="50%" dominant-baseline="middle" text-anchor="middle" font-weight="bold" pointer-events="none">UC-04 Browse report on map</text></g></svg><svg x="460" y="310" width="260" height="100" class="UC-05 Search and filter reports" fill="#ffffff"><g><ellipse cx="50%" cy="50%" rx="50%" ry="50%" stroke="black" fill="white" class="sc-kAyceB ldFMTf"></ellipse><text x="50%" y="50%" dominant-baseline="middle" text-anchor="middle" font-weight="bold" pointer-events="none">UC-05 Search and filter reports</text></g></svg><svg x="450" y="170" width="220" height="100" class="UC-06 View report details" fill="#ffffff"><g><ellipse cx="50%" cy="50%" rx="50%" ry="50%" stroke="black" fill="white" class="sc-kAyceB ldFMTf"></ellipse><text x="50%" y="50%" dominant-baseline="middle" text-anchor="middle" font-weight="bold" pointer-events="none">UC-06 View report details</text></g></svg><svg x="430" y="420" width="200" height="100" class="UC-07 Follow report" fill="#ffffff"><g><ellipse cx="50%" cy="50%" rx="50%" ry="50%" stroke="black" fill="white" class="sc-kAyceB ldFMTf"></ellipse><text x="50%" y="50%" dominant-baseline="middle" text-anchor="middle" font-weight="bold" pointer-events="none">UC-07 Follow report</text></g></svg><svg x="870" y="420" width="230" height="100" class="UC-08 Export reports (CSV)" fill="#ffffff"><g><ellipse cx="50%" cy="50%" rx="50%" ry="50%" stroke="black" fill="white" class="sc-kAyceB ldFMTf"></ellipse><text x="50%" y="50%" dominant-baseline="middle" text-anchor="middle" font-weight="bold" pointer-events="none">UC-08 Export reports (CSV)</text></g></svg><svg x="460" y="60" width="230" height="100" class="UC-09 View public statistics" fill="#ffffff"><g><ellipse cx="50%" cy="50%" rx="50%" ry="50%" stroke="black" fill="white" class="sc-kAyceB ldFMTf"></ellipse><text x="50%" y="50%" dominant-baseline="middle" text-anchor="middle" font-weight="bold" pointer-events="none">UC-09 View public statistics</text></g></svg><svg x="620" y="870" width="200" height="100" class="UC-10 Manage report" fill="#ffffff"><g><ellipse cx="50%" cy="50%" rx="50%" ry="50%" stroke="black" fill="white" class="sc-kAyceB ldFMTf"></ellipse><text x="50%" y="50%" dominant-baseline="middle" text-anchor="middle" font-weight="bold" pointer-events="none">UC-10 Manage report</text></g></svg><svg x="440" y="980" width="240" height="100" class="UC-11 Send message to User" fill="#ffffff"><g><ellipse cx="50%" cy="50%" rx="50%" ry="50%" stroke="black" fill="white" class="sc-kAyceB ldFMTf"></ellipse><text x="50%" y="50%" dominant-baseline="middle" text-anchor="middle" font-weight="bold" pointer-events="none">UC-11 Send message to User</text></g></svg><svg x="440" y="730" width="280" height="100" class="UC-12 Reply to operator message" fill="#ffffff"><g><ellipse cx="50%" cy="50%" rx="50%" ry="50%" stroke="black" fill="white" class="sc-kAyceB ldFMTf"></ellipse><text x="50%" y="50%" dominant-baseline="middle" text-anchor="middle" font-weight="bold" pointer-events="none">UC-12 Reply to operator message</text></g></svg><svg x="800" y="800" width="240" height="100" class="UC-13 View private statistics" fill="#ffffff"><g><ellipse cx="50%" cy="50%" rx="50%" ry="50%" stroke="black" fill="white" class="sc-kAyceB ldFMTf"></ellipse><text x="50%" y="50%" dominant-baseline="middle" text-anchor="middle" font-weight="bold" pointer-events="none">UC-13 View private statistics</text></g></svg><svg x="770" y="960" width="360" height="100" class="UC-14 Manage categories and configuration" fill="#ffffff"><g><ellipse cx="50%" cy="50%" rx="50%" ry="50%" stroke="black" fill="white" class="sc-kAyceB ldFMTf"></ellipse><text x="50%" y="50%" dominant-baseline="middle" text-anchor="middle" font-weight="bold" pointer-events="none">UC-14 Manage categories and configuration</text></g></svg><svg x="620" y="470" width="200" height="100" class="UC-15 Manage profile" fill="#ffffff"><g><ellipse cx="50%" cy="50%" rx="50%" ry="50%" stroke="black" fill="white" class="sc-kAyceB ldFMTf"></ellipse><text x="50%" y="50%" dominant-baseline="middle" text-anchor="middle" font-weight="bold" pointer-events="none">UC-15 Manage profile</text></g></svg><svg x="440" y="630" width="200" height="100" class="UC-16 Logout" fill="#ffffff"><g><ellipse cx="50%" cy="50%" rx="50%" ry="50%" stroke="black" fill="white" class="sc-kAyceB ldFMTf"></ellipse><text x="50%" y="50%" dominant-baseline="middle" text-anchor="middle" font-weight="bold" pointer-events="none">UC-16 Logout</text></g></svg><svg x="1320" y="450" width="180" height="100" class="OpenStreetMap" fill="#ffffff"><g><rect width="100%" height="100%" stroke="black" fill="white" class="sc-fqkvVR uHYUy"></rect><text x="50%" y="16" dominant-baseline="middle" text-anchor="middle" font-weight="bold" pointer-events="none">OpenStreetMap</text><text x="50%" y="32" dominant-baseline="middle" text-anchor="middle" font-weight="bold" pointer-events="none">External System</text></g></svg><svg x="20" y="880" width="180" height="100" class="Email Service" fill="#ffffff"><g><rect width="100%" height="100%" stroke="black" fill="white" class="sc-fqkvVR uHYUy"></rect><text x="50%" y="16" dominant-baseline="middle" text-anchor="middle" font-weight="bold" pointer-events="none">Email Service</text><text x="50%" y="32" dominant-baseline="middle" text-anchor="middle" font-weight="bold" pointer-events="none">External System</text></g></svg><svg x="200" y="250" width="80" height="140" class="Visitor" fill="#ffffff"><g><rect width="100%" height="100%" fill="none"></rect><g stroke="black" stroke-width="2"><circle cx="40" cy="25" r="15" stroke="black" fill="white" class="sc-iGgWBj fYmGgq"></circle><line x1="40" y1="40" x2="40" y2="80" stroke="black" class="sc-imWYAI kESMEa"></line><line x1="10" y1="50" x2="70" y2="50" stroke="black" class="sc-imWYAI kESMEa"></line><line x1="40" y1="80" x2="10" y2="110" stroke="black" class="sc-imWYAI kESMEa"></line><line x1="40" y1="80" x2="70" y2="110" stroke="black" class="sc-imWYAI kESMEa"></line></g><text x="40" y="130" dominant-baseline="middle" text-anchor="middle" font-weight="bold" pointer-events="none">Visitor</text></g></svg><svg x="200" y="540" width="80" height="140" class="Registered Citizen" fill="#ffffff"><g><rect width="100%" height="100%" fill="none"></rect><g stroke="black" stroke-width="2"><circle cx="40" cy="25" r="15" stroke="black" fill="white" class="sc-iGgWBj fYmGgq"></circle><line x1="40" y1="40" x2="40" y2="80" stroke="black" class="sc-imWYAI kESMEa"></line><line x1="10" y1="50" x2="70" y2="50" stroke="black" class="sc-imWYAI kESMEa"></line><line x1="40" y1="80" x2="10" y2="110" stroke="black" class="sc-imWYAI kESMEa"></line><line x1="40" y1="80" x2="70" y2="110" stroke="black" class="sc-imWYAI kESMEa"></line></g><text x="40" y="130" dominant-baseline="middle" text-anchor="middle" font-weight="bold" pointer-events="none">Registered Citizen</text></g></svg><svg x="600" y="1130" width="80" height="140" class="Municipal Operator" fill="#ffffff"><g><rect width="100%" height="100%" fill="none"></rect><g stroke="black" stroke-width="2"><circle cx="40" cy="25" r="15" stroke="black" fill="white" class="sc-iGgWBj fYmGgq"></circle><line x1="40" y1="40" x2="40" y2="80" stroke="black" class="sc-imWYAI kESMEa"></line><line x1="10" y1="50" x2="70" y2="50" stroke="black" class="sc-imWYAI kESMEa"></line><line x1="40" y1="80" x2="10" y2="110" stroke="black" class="sc-imWYAI kESMEa"></line><line x1="40" y1="80" x2="70" y2="110" stroke="black" class="sc-imWYAI kESMEa"></line></g><text x="40" y="130" dominant-baseline="middle" text-anchor="middle" font-weight="bold" pointer-events="none">Municipal Operator</text></g></svg><svg x="1320" y="940" width="80" height="140" class="Admin" fill="#ffffff"><g><rect width="100%" height="100%" fill="none"></rect><g stroke="black" stroke-width="2"><circle cx="40" cy="25" r="15" stroke="black" fill="white" class="sc-iGgWBj fYmGgq"></circle><line x1="40" y1="40" x2="40" y2="80" stroke="black" class="sc-imWYAI kESMEa"></line><line x1="10" y1="50" x2="70" y2="50" stroke="black" class="sc-imWYAI kESMEa"></line><line x1="40" y1="80" x2="10" y2="110" stroke="black" class="sc-imWYAI kESMEa"></line><line x1="40" y1="80" x2="70" y2="110" stroke="black" class="sc-imWYAI kESMEa"></line></g><text x="40" y="130" dominant-baseline="middle" text-anchor="middle" font-weight="bold" pointer-events="none">Admin</text></g></svg><svg x="1350" y="50" width="80" height="140" class="Visitor *" fill="#ffffff"><g><rect width="100%" height="100%" fill="none"></rect><g stroke="black" stroke-width="2"><circle cx="40" cy="25" r="15" stroke="black" fill="white" class="sc-iGgWBj fYmGgq"></circle><line x1="40" y1="40" x2="40" y2="80" stroke="black" class="sc-imWYAI kESMEa"></line><line x1="10" y1="50" x2="70" y2="50" stroke="black" class="sc-imWYAI kESMEa"></line><line x1="40" y1="80" x2="10" y2="110" stroke="black" class="sc-imWYAI kESMEa"></line><line x1="40" y1="80" x2="70" y2="110" stroke="black" class="sc-imWYAI kESMEa"></line></g><text x="40" y="130" dominant-baseline="middle" text-anchor="middle" font-weight="bold" pointer-events="none">Visitor *</text></g></svg><svg x="1310" y="270" width="420" height="50" class="This use cases are not inherited by the “User” Actor" fill="#ffffff"><g><path d="M 0 0 L 405 0 L 420 15 L 420 50 L 0 50 L 0 0 Z" stroke-width="1.2" stroke-miterlimit="10" stroke="#949494" fill="#ededed" class="sc-gEvEer dNlWWw"></path><path d="M 405 0 L 405 15 L 420 15" stroke-width="1.2" stroke-miterlimit="10" stroke="black" fill="none" class="sc-gEvEer bFSwyf"></path><text x="210" y="25" text-anchor="middle" width="420" height="50" font-weight="bold" pointer-events="none"><tspan x="210" dy="5.5">This use cases are not inherited by the “User” Actor</tspan></text></g></svg><svg x="680" y="1080" width="680" height="120" class="" fill="#ffffff"><g><marker id="marker-b6ee551e-34d6-4873-aab4-a76dea5c38aa" viewBox="0 0 30 30" markerWidth="22" markerHeight="30" refX="30" refY="15" orient="auto" markerUnits="strokeWidth"><path d="M0,1 L0,29 L30,15 z" stroke="black" fill="white" class="sc-gEvEer fkqzOi"></path></marker><polyline points="680 0,0 120" stroke-width="1" marker-end="url(#marker-b6ee551e-34d6-4873-aab4-a76dea5c38aa)" stroke="black" fill="none" class="sc-aXZVg eMElBf"></polyline></g></svg><svg x="240" y="680" width="360" height="520" class="" fill="#ffffff"><g><marker id="marker-f18b01d1-94af-4641-9f1c-63dfc219d830" viewBox="0 0 30 30" markerWidth="22" markerHeight="30" refX="30" refY="15" orient="auto" markerUnits="strokeWidth"><path d="M0,1 L0,29 L30,15 z" stroke="black" fill="white" class="sc-gEvEer fkqzOi"></path></marker><polyline points="360 520,0 0" stroke-width="1" marker-end="url(#marker-f18b01d1-94af-4641-9f1c-63dfc219d830)" stroke="black" fill="none" class="sc-aXZVg eMElBf"></polyline></g></svg><svg x="890" y="500" width="430" height="120" class="" fill="#ffffff"><g><g><marker id="marker-3424c140-a307-4e8f-9875-bcf131905d0e" viewBox="0 0 30 30" markerWidth="22" markerHeight="30" refX="30" refY="15" orient="auto" markerUnits="strokeWidth"><path d="M0,29 L30,15 L0,1" stroke="black" fill="none" class="sc-gEvEer bFSwyf"></path></marker><path d="
          M 430 0 L 253.52785205333217 49.248041287442184
          M 176.47214794666783 70.75195871255781 L 0 120
        " stroke-dasharray="7" marker-end="url(#marker-3424c140-a307-4e8f-9875-bcf131905d0e)" stroke="black" fill="white" class="sc-gEvEer fkqzOi"></path></g><path id="textpath-3424c140-a307-4e8f-9875-bcf131905d0e" d="
          M 253.52785205333217 49.248041287442184
          L 176.47214794666783 70.75195871255781
        "></path><text dominant-baseline="middle" text-anchor="middle" font-weight="bold" pointer-events="none" transform="
              translate(215, 60)
              rotate(180)
              translate(-215, -60)
            "><textPath xlink:href="#textpath-3424c140-a307-4e8f-9875-bcf131905d0e" startOffset="50%">«support»</textPath></text></g></svg><svg x="990" y="290" width="330" height="210" class="" fill="#ffffff"><g><g><marker id="marker-29fec1df-d1b9-4d78-b463-dfbdf8943e1d" viewBox="0 0 30 30" markerWidth="22" markerHeight="30" refX="30" refY="15" orient="auto" markerUnits="strokeWidth"><path d="M0,29 L30,15 L0,1" stroke="black" fill="none" class="sc-gEvEer bFSwyf"></path></marker><path d="
          M 330 210 L 198.7464595092843 126.47501968772637
          M 131.2535404907157 83.52498031227363 L 0 0
        " stroke-dasharray="7" marker-end="url(#marker-29fec1df-d1b9-4d78-b463-dfbdf8943e1d)" stroke="black" fill="white" class="sc-gEvEer fkqzOi"></path></g><path id="textpath-29fec1df-d1b9-4d78-b463-dfbdf8943e1d" d="
          M 198.7464595092843 126.47501968772637
          L 131.2535404907157 83.52498031227363
        "></path><text dominant-baseline="middle" text-anchor="middle" font-weight="bold" pointer-events="none" transform="
              translate(165, 105)
              rotate(180)
              translate(-165, -105)
            "><textPath xlink:href="#textpath-29fec1df-d1b9-4d78-b463-dfbdf8943e1d" startOffset="50%">«support»</textPath></text></g></svg><svg x="200" y="920" width="420" height="10" class="" fill="#ffffff"><g><g><marker id="marker-963057a4-d7b5-42de-818e-3c623c37f88e" viewBox="0 0 30 30" markerWidth="22" markerHeight="30" refX="30" refY="15" orient="auto" markerUnits="strokeWidth"><path d="M0,29 L30,15 L0,1" stroke="black" fill="none" class="sc-gEvEer bFSwyf"></path></marker><path d="
          M 0 10 L 170.01133305023455 5.952111117851558
          M 249.98866694976545 4.047888882148442 L 420 0
        " stroke-dasharray="7" marker-end="url(#marker-963057a4-d7b5-42de-818e-3c623c37f88e)" stroke="black" fill="white" class="sc-gEvEer fkqzOi"></path></g><path id="textpath-963057a4-d7b5-42de-818e-3c623c37f88e" d="
          M 170.01133305023455 5.952111117851558
          L 249.98866694976545 4.047888882148442
        "></path><text dominant-baseline="middle" text-anchor="middle" font-weight="bold" pointer-events="none"><textPath xlink:href="#textpath-963057a4-d7b5-42de-818e-3c623c37f88e" startOffset="50%">«support»</textPath></text></g></svg><svg x="200" y="930" width="240" height="100" class="" fill="#ffffff"><g><g><marker id="marker-9b2cda1c-75f0-4beb-a23e-95ed1d8e2fbc" viewBox="0 0 30 30" markerWidth="22" markerHeight="30" refX="30" refY="15" orient="auto" markerUnits="strokeWidth"><path d="M0,29 L30,15 L0,1" stroke="black" fill="none" class="sc-gEvEer bFSwyf"></path></marker><path d="
          M 0 0 L 83.07692307692308 34.61538461538462
          M 156.9230769230769 65.38461538461539 L 240 100
        " stroke-dasharray="7" marker-end="url(#marker-9b2cda1c-75f0-4beb-a23e-95ed1d8e2fbc)" stroke="black" fill="white" class="sc-gEvEer fkqzOi"></path></g><path id="textpath-9b2cda1c-75f0-4beb-a23e-95ed1d8e2fbc" d="
          M 83.07692307692308 34.61538461538462
          L 156.9230769230769 65.38461538461539
        "></path><text dominant-baseline="middle" text-anchor="middle" font-weight="bold" pointer-events="none"><textPath xlink:href="#textpath-9b2cda1c-75f0-4beb-a23e-95ed1d8e2fbc" startOffset="50%">«support»</textPath></text></g></svg><svg x="720" y="360" width="150" height="110" class="" fill="#ffffff"><g><g><marker id="marker-87b13f0d-e109-4124-ad7f-709e42b3ec09" viewBox="0 0 30 30" markerWidth="22" markerHeight="30" refX="30" refY="15" orient="auto" markerUnits="strokeWidth"><path d="M0,29 L30,15 L0,1" stroke="black" fill="none" class="sc-gEvEer bFSwyf"></path></marker><path d="
          M 150 110 L 107.25619983422823 78.6545465451007
          M 42.74380016577178 31.345453454899303 L 0 0
        " stroke-dasharray="7" marker-end="url(#marker-87b13f0d-e109-4124-ad7f-709e42b3ec09)" stroke="black" fill="white" class="sc-gEvEer fkqzOi"></path></g><path id="textpath-87b13f0d-e109-4124-ad7f-709e42b3ec09" d="
          M 107.25619983422823 78.6545465451007
          L 42.74380016577178 31.345453454899303
        "></path><text dominant-baseline="middle" text-anchor="middle" font-weight="bold" pointer-events="none" transform="
              translate(75, 55)
              rotate(180)
              translate(-75, -55)
            "><textPath xlink:href="#textpath-87b13f0d-e109-4124-ad7f-709e42b3ec09" startOffset="50%">«extend»</textPath></text></g></svg><svg x="1040" y="850" width="280" height="160" class="" fill="#ffffff"><g><path id="textpath-6e448c91-9cf5-42d8-812c-0758daea64d5" d="
        M 280 150
        L 0 -10
    "></path><text dominant-baseline="middle" text-anchor="middle" font-weight="bold" pointer-events="none" dy="20px" transform="
            translate(140, 80)
            rotate(180)
            translate(-140, -80)
          "><textPath xlink:href="#textpath-6e448c91-9cf5-42d8-812c-0758daea64d5" startOffset="50%"></textPath></text><polyline points="280 160,0 0" stroke-width="1" stroke="black" fill="none" class="sc-aXZVg eMElBf"></polyline></g></svg><svg x="1130" y="1010" width="190" height="1" class="" fill="#ffffff"><g><path id="textpath-bd78a601-7fbd-4586-bd71-80fdae339626" d="
        M 190 -10
        L 0 -10
    "></path><text dominant-baseline="middle" text-anchor="middle" font-weight="bold" pointer-events="none" dy="20px" transform="
            translate(95, 0)
            rotate(180)
            translate(-95, 0)
          "><textPath xlink:href="#textpath-bd78a601-7fbd-4586-bd71-80fdae339626" startOffset="50%"></textPath></text><polyline points="190 0,0 0" stroke-width="1" stroke="black" fill="none" class="sc-aXZVg eMElBf"></polyline></g></svg><svg x="640" y="970" width="80" height="160" class="" fill="#ffffff"><g><path id="textpath-f449cab6-33f7-45b5-ab64-2329981b9883" d="
        M 0 150
        L 80 -10
    "></path><text dominant-baseline="middle" text-anchor="middle" font-weight="bold" pointer-events="none" dy="20px"><textPath xlink:href="#textpath-f449cab6-33f7-45b5-ab64-2329981b9883" startOffset="50%"></textPath></text><polyline points="0 160,80 0" stroke-width="1" stroke="black" fill="none" class="sc-aXZVg eMElBf"></polyline></g></svg><svg x="560" y="1080" width="80" height="50" class="" fill="#ffffff"><g><path id="textpath-d53814ea-e5b6-469e-90f0-f9acdbb80fbf" d="
        M 80 40
        L 0 -10
    "></path><text dominant-baseline="middle" text-anchor="middle" font-weight="bold" pointer-events="none" dy="20px" transform="
            translate(40, 25)
            rotate(180)
            translate(-40, -25)
          "><textPath xlink:href="#textpath-d53814ea-e5b6-469e-90f0-f9acdbb80fbf" startOffset="50%"></textPath></text><polyline points="80 50,0 0" stroke-width="1" stroke="black" fill="none" class="sc-aXZVg eMElBf"></polyline></g></svg><svg x="280" y="470" width="150" height="140" class="" fill="#ffffff"><g><path id="textpath-9029f9e8-ae73-4003-9195-4840c404de46" d="
        M 0 130
        L 150 -10
    "></path><text dominant-baseline="middle" text-anchor="middle" font-weight="bold" pointer-events="none" dy="20px"><textPath xlink:href="#textpath-9029f9e8-ae73-4003-9195-4840c404de46" startOffset="50%"></textPath></text><polyline points="0 140,150 0" stroke-width="1" stroke="black" fill="none" class="sc-aXZVg eMElBf"></polyline></g></svg><svg x="280" y="610" width="160" height="70" class="" fill="#ffffff"><g><path id="textpath-11efc30c-a8d8-4ca0-b26d-422c017006a2" d="
        M 0 -10
        L 160 60
    "></path><text dominant-baseline="middle" text-anchor="middle" font-weight="bold" pointer-events="none" dy="20px"><textPath xlink:href="#textpath-11efc30c-a8d8-4ca0-b26d-422c017006a2" startOffset="50%"></textPath></text><polyline points="0 0,160 70" stroke-width="1" stroke="black" fill="none" class="sc-aXZVg eMElBf"></polyline></g></svg><svg x="280" y="610" width="160" height="170" class="" fill="#ffffff"><g><path id="textpath-13acacd7-c293-4ff2-86c5-69da1af18d07" d="
        M 0 -10
        L 160 160
    "></path><text dominant-baseline="middle" text-anchor="middle" font-weight="bold" pointer-events="none" dy="20px"><textPath xlink:href="#textpath-13acacd7-c293-4ff2-86c5-69da1af18d07" startOffset="50%"></textPath></text><polyline points="0 0,160 170" stroke-width="1" stroke="black" fill="none" class="sc-aXZVg eMElBf"></polyline></g></svg><svg x="280" y="610" width="410" height="10" class="" fill="#ffffff"><g><path id="textpath-d22b1a83-1e2b-44ff-948e-eb696fa42140" d="
        M 0 -10
        L 410 0
    "></path><text dominant-baseline="middle" text-anchor="middle" font-weight="bold" pointer-events="none" dy="20px"><textPath xlink:href="#textpath-d22b1a83-1e2b-44ff-948e-eb696fa42140" startOffset="50%"></textPath></text><polyline points="0 0,410 10" stroke-width="1" stroke="black" fill="none" class="sc-aXZVg eMElBf"></polyline></g></svg><svg x="280" y="520" width="340" height="90" class="" fill="#ffffff"><g><path id="textpath-3739396f-40ce-4788-a6c7-23e666344e7f" d="
        M 0 80
        L 340 -10
    "></path><text dominant-baseline="middle" text-anchor="middle" font-weight="bold" pointer-events="none" dy="20px"><textPath xlink:href="#textpath-3739396f-40ce-4788-a6c7-23e666344e7f" startOffset="50%"></textPath></text><polyline points="0 90,340 0" stroke-width="1" stroke="black" fill="none" class="sc-aXZVg eMElBf"></polyline></g></svg><svg x="280" y="110" width="180" height="210" class="" fill="#ffffff"><g><path id="textpath-b3392cca-69ec-478a-be30-de2c839d1e0a" d="
        M 0 200
        L 180 -10
    "></path><text dominant-baseline="middle" text-anchor="middle" font-weight="bold" pointer-events="none" dy="20px"><textPath xlink:href="#textpath-b3392cca-69ec-478a-be30-de2c839d1e0a" startOffset="50%"></textPath></text><polyline points="0 210,180 0" stroke-width="1" stroke="black" fill="none" class="sc-aXZVg eMElBf"></polyline></g></svg><svg x="280" y="220" width="170" height="100" class="" fill="#ffffff"><g><path id="textpath-e3bf8d1a-6868-4d83-a6f3-25a99b956bd0" d="
        M 0 90
        L 170 -10
    "></path><text dominant-baseline="middle" text-anchor="middle" font-weight="bold" pointer-events="none" dy="20px"><textPath xlink:href="#textpath-e3bf8d1a-6868-4d83-a6f3-25a99b956bd0" startOffset="50%"></textPath></text><polyline points="0 100,170 0" stroke-width="1" stroke="black" fill="none" class="sc-aXZVg eMElBf"></polyline></g></svg><svg x="280" y="290" width="470" height="30" class="" fill="#ffffff"><g><path id="textpath-dd34d93d-6aec-4af7-86ef-5148bca74719" d="
        M 0 20
        L 470 -10
    "></path><text dominant-baseline="middle" text-anchor="middle" font-weight="bold" pointer-events="none" dy="20px"><textPath xlink:href="#textpath-dd34d93d-6aec-4af7-86ef-5148bca74719" startOffset="50%"></textPath></text><polyline points="0 30,470 0" stroke-width="1" stroke="black" fill="none" class="sc-aXZVg eMElBf"></polyline></g></svg><svg x="280" y="320" width="180" height="40" class="" fill="#ffffff"><g><path id="textpath-de772a1e-326c-4ea6-af85-601bc0faed24" d="
        M 0 -10
        L 180 30
    "></path><text dominant-baseline="middle" text-anchor="middle" font-weight="bold" pointer-events="none" dy="20px"><textPath xlink:href="#textpath-de772a1e-326c-4ea6-af85-601bc0faed24" startOffset="50%"></textPath></text><polyline points="0 0,180 40" stroke-width="1" stroke="black" fill="none" class="sc-aXZVg eMElBf"></polyline></g></svg><svg x="240" y="390" width="1" height="150" class="" fill="#ffffff"><g><marker id="marker-284c7706-5f5a-456f-9cb8-9c9e46f23754" viewBox="0 0 30 30" markerWidth="22" markerHeight="30" refX="30" refY="15" orient="auto" markerUnits="strokeWidth"><path d="M0,1 L0,29 L30,15 z" stroke="black" fill="white" class="sc-gEvEer fkqzOi"></path></marker><polyline points="0 150,0 0" stroke-width="1" marker-end="url(#marker-284c7706-5f5a-456f-9cb8-9c9e46f23754)" stroke="black" fill="none" class="sc-aXZVg eMElBf"></polyline></g></svg><svg x="1130" y="120" width="220" height="1" class="" fill="#ffffff"><g><path id="textpath-3425fd1b-674f-412b-9d03-c3db1b1b2a93" d="
        M 220 -10
        L 0 -10
    "></path><text dominant-baseline="middle" text-anchor="middle" font-weight="bold" pointer-events="none" dy="20px" transform="
            translate(110, 0)
            rotate(180)
            translate(-110, 0)
          "><textPath xlink:href="#textpath-3425fd1b-674f-412b-9d03-c3db1b1b2a93" startOffset="50%"></textPath></text><polyline points="220 0,0 0" stroke-width="1" stroke="black" fill="none" class="sc-aXZVg eMElBf"></polyline></g></svg><svg x="1210" y="120" width="140" height="110" class="" fill="#ffffff"><g><path id="textpath-3679a9f7-bda2-4829-81cb-914d78d02a4c" d="
        M 140 -10
        L 0 100
    "></path><text dominant-baseline="middle" text-anchor="middle" font-weight="bold" pointer-events="none" dy="20px" transform="
            translate(70, 55)
            rotate(180)
            translate(-70, -55)
          "><textPath xlink:href="#textpath-3679a9f7-bda2-4829-81cb-914d78d02a4c" startOffset="50%"></textPath></text><polyline points="140 0,0 110" stroke-width="1" stroke="black" fill="none" class="sc-aXZVg eMElBf"></polyline></g></svg><svg x="1390" y="190" width="130" height="80" class="" fill="#ffffff"><g><path id="textpath-98f8390b-9bc1-4e10-aa48-ccb2d9e439f7" d="
        M 130 70
        L 0 -10
    "></path><text dominant-baseline="middle" text-anchor="middle" font-weight="bold" pointer-events="none" dy="20px" transform="
            translate(65, 40)
            rotate(180)
            translate(-65, -40)
          "><textPath xlink:href="#textpath-98f8390b-9bc1-4e10-aa48-ccb2d9e439f7" startOffset="50%"></textPath></text><polyline points="130 80,0 0" stroke-width="1" stroke="black" fill="none" class="sc-aXZVg eMElBf"></polyline></g></svg></svg>